# Blender v3.2.1 OBJ File: 'untitled.blend'
# www.blender.org
mtllib 3.mtl
o Cube.003
v -0.007745 0.038419 0.014909
v -0.005691 0.035788 0.014909
v -0.029119 0.022654 0.014909
v -0.043318 -0.013199 0.014909
v 0.010638 -0.005390 0.014909
v 0.013123 -0.010004 0.014909
v -0.083076 0.098974 0.014909
v -0.000721 -0.021009 0.014909
v -0.042608 -0.014264 0.014909
v -0.070652 -0.029883 0.014909
v -0.098695 -0.111528 0.014909
v 0.013833 -0.093069 0.014909
v 0.059270 -0.061121 0.014909
v 0.078439 -0.014264 0.014909
v 0.056075 0.021589 0.014909
v 0.045426 0.027978 0.014909
v 0.054301 0.053182 0.014909
v 0.086604 0.058506 0.014909
v 0.086604 0.064186 0.014909
v 0.040456 0.108558 0.014909
v -0.019890 0.094004 0.014909
v -0.043673 0.076255 0.014909
v -0.073492 0.000290 0.014909
v -0.039059 0.007034 0.014909
v -0.028543 0.031135 0.014909
v -0.009136 0.038654 0.008164
v -0.006225 0.038534 0.008164
v -0.026913 0.028437 0.008164
v -0.046223 -0.010175 0.008164
v -0.000945 -0.007935 0.008164
v 0.001037 -0.010267 0.008164
v -0.092734 0.112716 0.008164
v -0.002343 -0.012003 0.008164
v -0.047887 -0.009815 0.008164
v -0.075985 -0.027412 0.008164
v -0.104792 -0.117064 0.008164
v 0.017582 -0.105782 0.008164
v 0.067084 -0.069409 0.008164
v 0.086231 -0.015110 0.008164
v 0.061703 0.026060 0.008164
v 0.053235 0.029721 0.008164
v 0.059700 0.049644 0.008164
v 0.091895 0.054943 0.008164
v 0.093670 0.063482 0.008164
v 0.043722 0.118526 0.008164
v -0.022249 0.102457 0.008164
v -0.046829 0.090159 0.008164
v -0.077193 -0.009298 0.008164
v -0.040629 -0.005042 0.008164
v -0.026896 0.030584 0.008164
v -0.009136 0.038654 0.000000
v -0.006225 0.038534 0.000000
v -0.026913 0.028437 0.000000
v -0.046223 -0.010175 0.000000
v -0.000945 -0.007935 0.000000
v 0.001037 -0.010267 0.000000
v -0.092734 0.112716 0.000000
v -0.002343 -0.012003 0.000000
v -0.047887 -0.009815 0.000000
v -0.075985 -0.027412 0.000000
v -0.104792 -0.117064 0.000000
v 0.017582 -0.105782 0.000000
v 0.067084 -0.069409 0.000000
v 0.086231 -0.015110 0.000000
v 0.061703 0.026060 0.000000
v 0.053235 0.029721 0.000000
v 0.059700 0.049644 0.000000
v 0.091895 0.054943 0.000000
v 0.093670 0.063482 0.000000
v 0.043722 0.118526 0.000000
v -0.022249 0.102457 0.000000
v -0.046829 0.090159 0.000000
v -0.077193 -0.009298 0.000000
v -0.040629 -0.005042 0.000000
v -0.026896 0.030584 0.000000
v -0.007745 0.038419 -0.014909
v -0.005691 0.035788 -0.014909
v -0.029119 0.022654 -0.014909
v -0.043318 -0.013199 -0.014909
v 0.010638 -0.005390 -0.014909
v 0.013123 -0.010004 -0.014909
v -0.083076 0.098974 -0.014909
v -0.000721 -0.021009 -0.014909
v -0.042608 -0.014264 -0.014909
v -0.070652 -0.029883 -0.014909
v -0.098695 -0.111528 -0.014909
v 0.013833 -0.093069 -0.014909
v 0.059270 -0.061121 -0.014909
v 0.078439 -0.014264 -0.014909
v 0.056075 0.021589 -0.014909
v 0.045426 0.027978 -0.014909
v 0.054301 0.053182 -0.014909
v 0.086604 0.058506 -0.014909
v 0.086604 0.064186 -0.014909
v 0.040456 0.108558 -0.014909
v -0.019890 0.094004 -0.014909
v -0.043673 0.076255 -0.014909
v -0.073492 0.000290 -0.014909
v -0.039059 0.007034 -0.014909
v -0.028543 0.031135 -0.014909
v -0.009136 0.038654 -0.008164
v -0.006225 0.038534 -0.008164
v -0.026913 0.028437 -0.008164
v -0.046223 -0.010175 -0.008164
v -0.000945 -0.007935 -0.008164
v 0.001037 -0.010267 -0.008164
v -0.092734 0.112716 -0.008164
v -0.002343 -0.012003 -0.008164
v -0.047887 -0.009815 -0.008164
v -0.075985 -0.027412 -0.008164
v -0.104792 -0.117064 -0.008164
v 0.017582 -0.105782 -0.008164
v 0.067084 -0.069409 -0.008164
v 0.086231 -0.015110 -0.008164
v 0.061703 0.026060 -0.008164
v 0.053235 0.029721 -0.008164
v 0.059700 0.049644 -0.008164
v 0.091895 0.054943 -0.008164
v 0.093670 0.063482 -0.008164
v 0.043722 0.118526 -0.008164
v -0.022249 0.102457 -0.008164
v -0.046829 0.090159 -0.008164
v -0.077193 -0.009298 -0.008164
v -0.040629 -0.005042 -0.008164
v -0.026896 0.030584 -0.008164
vt 0.644316 0.488216
vt 0.654490 0.469322
vt 0.786749 0.624836
vt 0.953817 0.448417
vt 0.853394 0.616981
vt 0.853394 0.616981
vt 0.481535 0.603035
vt 0.411505 0.468625
vt 0.423399 0.456242
vt 0.823084 0.728027
vt 0.818722 0.631970
vt 0.845193 0.713541
vt 0.843431 0.260033
vt 0.921915 0.451881
vt 0.577460 0.656810
vt 0.490570 0.626713
vt 0.519324 0.895168
vt 0.409024 0.879425
vt 0.421946 0.822498
vt 0.596889 0.477794
vt 0.426306 0.451881
vt 0.591168 0.461138
vt 0.404693 0.470097
vt 0.260619 0.915515
vt 0.221078 0.971780
vt 0.830351 0.598674
vt 0.196669 0.053650
vt 0.289653 0.398051
vt 0.171707 0.030985
vt 0.569049 0.667582
vt 0.575271 0.668054
vt 0.955343 0.773082
vt 0.779773 0.995569
vt 0.766401 0.954757
vt 0.597807 0.424267
vt 0.605006 0.468247
vt 0.955343 0.749828
vt 0.984275 0.770200
vt 0.490640 0.635503
vt 0.563355 0.668545
vt 0.440840 0.539085
vt 0.483896 0.637762
vt 0.977008 0.735237
vt 0.657397 0.129227
vt 0.875422 0.226101
vt 0.299861 0.511471
vt 0.434412 0.489641
vt 0.672747 0.077178
vt 0.509664 0.929775
vt 0.311488 0.387932
vt 0.284707 0.472216
vt 0.563355 0.668545
vt 0.490640 0.635503
vt 0.409024 0.879425
vt 0.171707 0.030985
vt 0.575271 0.668054
vt 0.779773 0.995569
vt 0.591168 0.461138
vt 0.984275 0.770200
vt 0.818722 0.631970
vt 0.605006 0.468247
vt 0.977008 0.735237
vt 0.875422 0.226101
vt 0.434412 0.489641
vt 0.672747 0.077178
vt 0.509664 0.929775
vt 0.289653 0.398051
vt 0.284707 0.472216
vt 0.411505 0.468625
vt 0.845193 0.713541
vt 0.953817 0.448417
vt 0.490570 0.626713
vt 0.596889 0.477794
vt 0.404693 0.470097
vt 0.221078 0.971780
vt 0.569049 0.667582
vt 0.483896 0.637762
vt 0.421946 0.822498
vt 0.953817 0.448417
vt 0.853394 0.616981
vt 0.411505 0.468625
vt 0.481535 0.603035
vt 0.423399 0.456242
vt 0.823084 0.728027
vt 0.818722 0.631970
vt 0.786749 0.624836
vt 0.843431 0.260033
vt 0.921915 0.451881
vt 0.490570 0.626713
vt 0.577460 0.656810
vt 0.409024 0.879425
vt 0.519324 0.895168
vt 0.596889 0.477794
vt 0.644316 0.488216
vt 0.426306 0.451881
vt 0.591168 0.461138
vt 0.597807 0.424267
vt 0.260619 0.915515
vt 0.830351 0.598674
vt 0.196669 0.053650
vt 0.289653 0.398051
vt 0.311488 0.387932
vt 0.575271 0.668054
vt 0.779773 0.995569
vt 0.955343 0.773082
vt 0.766401 0.954757
vt 0.605006 0.468247
vt 0.654490 0.469322
vt 0.984275 0.770200
vt 0.955343 0.749828
vt 0.490640 0.635503
vt 0.440840 0.539085
vt 0.845193 0.713541
vt 0.875422 0.226101
vt 0.657397 0.129227
vt 0.434412 0.489641
vt 0.299861 0.511471
vt 0.672747 0.077178
vt 0.509664 0.929775
vt 0.404693 0.470097
vt 0.284707 0.472216
vt 0.171707 0.030985
vt 0.563355 0.668545
vt 0.977008 0.735237
vt 0.221078 0.971780
vn -0.0000 0.0000 1.0000
vn 0.8591 0.5118 0.0000
vn -0.8093 0.3205 0.4923
vn 0.6988 -0.2268 0.6784
vn 0.6174 -0.2526 0.7450
vn -0.4215 0.7519 0.5068
vn -0.2749 0.3684 0.8881
vn 0.1421 -0.9817 0.1265
vn 0.0408 0.8484 0.5278
vn 0.2827 0.5754 0.7675
vn 0.5826 0.3634 0.7270
vn -0.8129 0.2612 0.5205
vn -0.7746 -0.6048 -0.1849
vn 0.4027 0.4188 0.8139
vn -0.2789 0.5430 0.7921
vn 0.6905 0.0000 0.7234
vn 0.3984 0.6640 0.6328
vn 0.4109 -0.9042 -0.1163
vn 0.8878 -0.3874 0.2485
vn -0.4674 -0.2517 0.8474
vn 0.1362 -0.8278 0.5443
vn 0.2953 -0.4200 0.8581
vn 0.0969 -0.4949 0.8635
vn 0.0739 -0.4503 0.8898
vn -0.1429 0.5926 0.7927
vn -0.4287 0.6844 0.5897
vn -0.8217 -0.0798 0.5643
vn 0.0000 0.0000 -1.0000
vn -0.9521 0.3059 0.0000
vn -0.0412 -0.9992 0.0000
vn 0.7406 0.6720 0.0000
vn -0.4569 0.8895 0.0000
vn 0.9791 -0.2035 0.0000
vn 0.3968 0.9179 0.0000
vn 0.4137 -0.9104 0.0000
vn 0.9331 -0.3597 0.0000
vn -0.7619 -0.6477 0.0000
vn 0.1624 -0.9867 0.0000
vn 0.5921 -0.8058 0.0000
vn 0.1156 -0.9933 0.0000
vn 0.0918 -0.9958 0.0000
vn -0.2367 0.9716 0.0000
vn -0.5308 0.8475 0.0000
vn -0.9920 -0.1263 0.0000
vn -0.8944 0.4473 0.0000
vn 0.9512 -0.3087 0.0000
vn 0.9431 -0.3326 0.0000
vn -0.4386 0.8987 0.0000
vn -0.4474 0.8943 0.0000
vn 0.0494 -0.9988 0.0000
vn 0.0480 0.9988 0.0000
vn 0.4410 0.8975 0.0000
vn -0.8093 0.3205 -0.4923
vn 0.6649 -0.2341 -0.7093
vn 0.6174 -0.2526 -0.7450
vn -0.4215 0.7519 -0.5068
vn -0.2749 0.3684 -0.8881
vn 0.1421 -0.9817 -0.1265
vn 0.0979 0.6078 -0.7880
vn 0.2705 0.4692 -0.8406
vn 0.5826 0.3634 -0.7270
vn -0.7146 0.2455 -0.6550
vn -0.7746 -0.6048 0.1849
vn 0.4027 0.4188 -0.8139
vn -0.4218 0.5306 -0.7352
vn 0.6905 0.0000 -0.7234
vn 0.3984 0.6640 -0.6328
vn 0.3265 -0.9322 -0.1560
vn 0.8878 -0.3874 -0.2485
vn -0.4674 -0.2517 -0.8474
vn 0.1365 -0.8281 -0.5437
vn 0.2953 -0.4200 -0.8581
vn 0.0969 -0.4949 -0.8635
vn 0.0739 -0.4503 -0.8898
vn -0.1429 0.5926 -0.7927
vn -0.3515 0.6311 -0.6915
vn -0.8217 -0.0798 -0.5643
vn -0.8907 0.4455 0.0906
vn 0.6649 -0.2341 0.7093
vn 0.5228 -0.1844 0.8323
vn -0.4072 0.8342 0.3719
vn -0.2758 0.5513 0.7874
vn 0.0447 -0.9042 -0.4248
vn 0.0979 0.6078 0.7880
vn 0.2705 0.4692 0.8406
vn 0.6296 0.3751 0.6803
vn -0.7146 0.2455 0.6550
vn -0.0412 -0.9988 -0.0264
vn 0.6051 0.5490 0.5766
vn -0.4218 0.5306 0.7352
vn 0.7366 -0.1531 0.6588
vn 0.2892 0.6689 0.6848
vn 0.3265 -0.9322 0.1560
vn 0.8582 -0.3308 0.3925
vn -0.4125 -0.3507 0.8408
vn 0.1365 -0.8281 0.5437
vn 0.2818 -0.3835 0.8795
vn 0.0689 -0.5916 0.8032
vn 0.0740 -0.8026 0.5919
vn -0.1428 0.5863 0.7974
vn -0.3515 0.6311 0.6915
vn -0.6467 -0.0824 0.7582
vn -0.8907 0.4455 -0.0906
vn 0.6988 -0.2268 -0.6784
vn 0.5228 -0.1844 -0.8323
vn -0.4072 0.8342 -0.3719
vn -0.2758 0.5513 -0.7874
vn 0.0447 -0.9042 0.4248
vn 0.0408 0.8484 -0.5278
vn 0.2827 0.5754 -0.7675
vn 0.6296 0.3751 -0.6803
vn -0.8129 0.2612 -0.5205
vn -0.0412 -0.9988 0.0264
vn 0.6051 0.5490 -0.5766
vn -0.2789 0.5430 -0.7921
vn 0.7366 -0.1531 -0.6588
vn 0.2892 0.6689 -0.6848
vn 0.4109 -0.9042 0.1163
vn 0.8582 -0.3308 -0.3925
vn -0.4125 -0.3507 -0.8408
vn 0.1362 -0.8278 -0.5443
vn 0.2818 -0.3835 -0.8795
vn 0.0689 -0.5916 -0.8032
vn 0.0740 -0.8026 -0.5919
vn -0.1428 0.5863 -0.7974
vn -0.4287 0.6844 -0.5897
vn -0.6467 -0.0824 -0.7582
usemtl Material.003
s off
f 5/1/1 6/2/1 16/3/1
f 39/4/2 65/5/2 40/6/2
f 3/7/3 29/8/3 4/9/3
f 17/10/4 41/11/4 42/12/4
f 13/13/5 39/4/5 14/14/5
f 2/15/6 28/16/6 3/7/6
f 21/17/7 47/18/7 22/19/7
f 4/9/8 30/20/8 5/1/8
f 9/21/9 33/22/9 34/23/9
f 7/24/10 47/18/10 32/25/10
f 14/14/11 40/6/11 15/26/11
f 11/27/12 35/28/12 36/29/12
f 1/30/13 27/31/13 2/15/13
f 19/32/14 45/33/14 20/34/14
f 8/35/15 31/36/15 33/22/15
f 18/37/16 44/38/16 19/32/16
f 15/26/17 41/11/17 16/3/17
f 1/30/18 50/39/18 26/40/18
f 24/41/19 50/39/19 25/42/19
f 5/1/20 31/36/20 6/2/20
f 18/37/21 42/12/21 43/43/21
f 12/44/22 38/45/22 13/13/22
f 23/46/23 49/47/23 24/41/23
f 11/27/24 37/48/24 12/44/24
f 20/34/25 46/49/25 21/17/25
f 10/50/26 34/23/26 35/28/26
f 7/24/27 48/51/27 23/46/27
f 51/52/28 75/53/28 72/54/28
f 35/28/29 61/55/29 36/29/29
f 26/40/30 52/56/30 27/31/30
f 44/38/31 70/57/31 45/33/31
f 31/36/32 58/58/32 33/22/32
f 43/43/33 69/59/33 44/38/33
f 40/6/34 66/60/34 41/11/34
f 50/39/35 51/52/35 26/40/35
f 49/47/36 75/53/36 50/39/36
f 30/20/37 56/61/37 31/36/37
f 42/12/38 68/62/38 43/43/38
f 37/48/39 63/63/39 38/45/39
f 48/51/40 74/64/40 49/47/40
f 36/29/41 62/65/41 37/48/41
f 45/33/42 71/66/42 46/49/42
f 34/23/43 60/67/43 35/28/43
f 32/25/44 73/68/44 48/51/44
f 28/16/45 54/69/45 29/8/45
f 41/11/46 67/70/46 42/12/46
f 38/45/47 64/71/47 39/4/47
f 27/31/48 53/72/48 28/16/48
f 46/49/49 72/54/49 47/18/49
f 29/8/50 55/73/50 30/20/50
f 33/22/51 59/74/51 34/23/51
f 47/18/52 57/75/52 32/25/52
f 76/76/28 100/77/28 97/78/28
f 65/5/2 114/79/2 115/80/2
f 104/81/53 78/82/53 79/83/53
f 92/84/54 116/85/54 91/86/54
f 114/79/55 88/87/55 89/88/55
f 103/89/56 77/90/56 78/82/56
f 122/91/57 96/92/57 97/78/57
f 105/93/58 79/83/58 80/94/58
f 84/95/59 108/96/59 83/97/59
f 82/98/60 122/91/60 97/78/60
f 115/80/61 89/88/61 90/99/61
f 86/100/62 110/101/62 85/102/62
f 102/103/63 76/76/63 77/90/63
f 120/104/64 94/105/64 95/106/64
f 83/97/65 106/107/65 81/108/65
f 119/109/66 93/110/66 94/105/66
f 116/85/67 90/99/67 91/86/67
f 76/76/68 125/111/68 100/77/68
f 125/111/69 99/112/69 100/77/69
f 106/107/70 80/94/70 81/108/70
f 93/110/71 117/113/71 92/84/71
f 113/114/72 87/115/72 88/87/72
f 124/116/73 98/117/73 99/112/73
f 112/118/74 86/100/74 87/115/74
f 121/119/75 95/106/75 96/92/75
f 85/102/76 109/120/76 84/95/76
f 123/121/77 82/98/77 98/117/77
f 61/55/29 110/101/29 111/122/29
f 52/56/30 101/123/30 102/103/30
f 70/57/31 119/109/31 120/104/31
f 58/58/32 106/107/32 108/96/32
f 69/59/33 118/124/33 119/109/33
f 66/60/34 115/80/34 116/85/34
f 51/52/35 125/111/35 101/123/35
f 75/53/36 124/116/36 125/111/36
f 56/61/37 105/93/37 106/107/37
f 68/62/38 117/113/38 118/124/38
f 63/63/39 112/118/39 113/114/39
f 74/64/40 123/121/40 124/116/40
f 62/65/41 111/122/41 112/118/41
f 71/66/42 120/104/42 121/119/42
f 60/67/43 109/120/43 110/101/43
f 73/68/44 107/125/44 123/121/44
f 54/69/45 103/89/45 104/81/45
f 67/70/46 116/85/46 117/113/46
f 64/71/47 113/114/47 114/79/47
f 53/72/48 102/103/48 103/89/48
f 72/54/49 121/119/49 122/91/49
f 55/73/50 104/81/50 105/93/50
f 59/74/51 108/96/51 109/120/51
f 57/75/52 122/91/52 107/125/52
f 8/35/1 9/21/1 12/44/1
f 9/21/1 10/50/1 12/44/1
f 10/50/1 11/27/1 12/44/1
f 12/44/1 13/13/1 8/35/1
f 13/13/1 14/14/1 6/2/1
f 14/14/1 15/26/1 6/2/1
f 15/26/1 16/3/1 6/2/1
f 17/10/1 18/37/1 19/32/1
f 13/13/1 6/2/1 8/35/1
f 17/10/1 19/32/1 20/34/1
f 16/3/1 17/10/1 2/15/1
f 17/10/1 20/34/1 21/17/1
f 1/30/1 17/10/1 21/17/1
f 21/17/1 22/19/1 1/30/1
f 22/19/1 7/24/1 23/46/1
f 23/46/1 24/41/1 25/42/1
f 22/19/1 23/46/1 25/42/1
f 17/10/1 1/30/1 2/15/1
f 22/19/1 25/42/1 1/30/1
f 2/15/1 3/7/1 5/1/1
f 3/7/1 4/9/1 5/1/1
f 2/15/1 5/1/1 16/3/1
f 39/4/2 64/71/2 65/5/2
f 3/7/78 28/16/78 29/8/78
f 17/10/79 16/3/79 41/11/79
f 13/13/80 38/45/80 39/4/80
f 2/15/81 27/31/81 28/16/81
f 21/17/82 46/49/82 47/18/82
f 4/9/83 29/8/83 30/20/83
f 9/21/84 8/35/84 33/22/84
f 7/24/85 22/19/85 47/18/85
f 14/14/86 39/4/86 40/6/86
f 11/27/87 10/50/87 35/28/87
f 1/30/88 26/40/88 27/31/88
f 19/32/89 44/38/89 45/33/89
f 8/35/90 6/2/90 31/36/90
f 18/37/91 43/43/91 44/38/91
f 15/26/92 40/6/92 41/11/92
f 1/30/93 25/42/93 50/39/93
f 24/41/94 49/47/94 50/39/94
f 5/1/95 30/20/95 31/36/95
f 18/37/96 17/10/96 42/12/96
f 12/44/97 37/48/97 38/45/97
f 23/46/98 48/51/98 49/47/98
f 11/27/99 36/29/99 37/48/99
f 20/34/100 45/33/100 46/49/100
f 10/50/101 9/21/101 34/23/101
f 7/24/102 32/25/102 48/51/102
f 55/73/28 54/69/28 53/72/28
f 55/73/28 53/72/28 52/56/28
f 56/61/28 55/73/28 66/60/28
f 55/73/28 52/56/28 66/60/28
f 60/67/28 59/74/28 62/65/28
f 59/74/28 58/58/28 62/65/28
f 62/65/28 61/55/28 60/67/28
f 64/71/28 63/63/28 56/61/28
f 63/63/28 62/65/28 58/58/28
f 56/61/28 63/63/28 58/58/28
f 66/60/28 65/5/28 56/61/28
f 65/5/28 64/71/28 56/61/28
f 69/59/28 68/62/28 67/70/28
f 70/57/28 69/59/28 67/70/28
f 70/57/28 67/70/28 52/56/28
f 67/70/28 66/60/28 52/56/28
f 72/54/28 71/66/28 51/52/28
f 71/66/28 70/57/28 52/56/28
f 73/68/28 57/75/28 72/54/28
f 75/53/28 74/64/28 73/68/28
f 75/53/28 73/68/28 72/54/28
f 71/66/28 52/56/28 51/52/28
f 35/28/29 60/67/29 61/55/29
f 26/40/30 51/52/30 52/56/30
f 44/38/31 69/59/31 70/57/31
f 31/36/32 56/61/32 58/58/32
f 43/43/33 68/62/33 69/59/33
f 40/6/34 65/5/34 66/60/34
f 50/39/35 75/53/35 51/52/35
f 49/47/36 74/64/36 75/53/36
f 30/20/37 55/73/37 56/61/37
f 42/12/38 67/70/38 68/62/38
f 37/48/39 62/65/39 63/63/39
f 48/51/40 73/68/40 74/64/40
f 36/29/41 61/55/41 62/65/41
f 45/33/42 70/57/42 71/66/42
f 34/23/43 59/74/43 60/67/43
f 32/25/44 57/75/44 73/68/44
f 28/16/45 53/72/45 54/69/45
f 41/11/46 66/60/46 67/70/46
f 38/45/47 63/63/47 64/71/47
f 27/31/48 52/56/48 53/72/48
f 46/49/49 71/66/49 72/54/49
f 29/8/50 54/69/50 55/73/50
f 33/22/51 58/58/51 59/74/51
f 47/18/52 72/54/52 57/75/52
f 80/94/28 79/83/28 78/82/28
f 80/94/28 78/82/28 77/90/28
f 81/108/28 80/94/28 91/86/28
f 80/94/28 77/90/28 91/86/28
f 85/102/28 84/95/28 87/115/28
f 84/95/28 83/97/28 87/115/28
f 87/115/28 86/100/28 85/102/28
f 89/88/28 88/87/28 81/108/28
f 88/87/28 87/115/28 83/97/28
f 81/108/28 88/87/28 83/97/28
f 91/86/28 90/99/28 81/108/28
f 90/99/28 89/88/28 81/108/28
f 94/105/28 93/110/28 92/84/28
f 95/106/28 94/105/28 92/84/28
f 95/106/28 92/84/28 96/92/28
f 92/84/28 91/86/28 77/90/28
f 76/76/28 92/84/28 77/90/28
f 97/78/28 96/92/28 76/76/28
f 76/76/28 96/92/28 92/84/28
f 98/117/28 82/98/28 97/78/28
f 100/77/28 99/112/28 98/117/28
f 100/77/28 98/117/28 97/78/28
f 65/5/2 64/71/2 114/79/2
f 104/81/103 103/89/103 78/82/103
f 92/84/104 117/113/104 116/85/104
f 114/79/105 113/114/105 88/87/105
f 103/89/106 102/103/106 77/90/106
f 122/91/107 121/119/107 96/92/107
f 105/93/108 104/81/108 79/83/108
f 84/95/109 109/120/109 108/96/109
f 82/98/110 107/125/110 122/91/110
f 115/80/111 114/79/111 89/88/111
f 86/100/112 111/122/112 110/101/112
f 102/103/113 101/123/113 76/76/113
f 120/104/114 119/109/114 94/105/114
f 83/97/115 108/96/115 106/107/115
f 119/109/116 118/124/116 93/110/116
f 116/85/117 115/80/117 90/99/117
f 76/76/118 101/123/118 125/111/118
f 125/111/119 124/116/119 99/112/119
f 106/107/120 105/93/120 80/94/120
f 93/110/121 118/124/121 117/113/121
f 113/114/122 112/118/122 87/115/122
f 124/116/123 123/121/123 98/117/123
f 112/118/124 111/122/124 86/100/124
f 121/119/125 120/104/125 95/106/125
f 85/102/126 110/101/126 109/120/126
f 123/121/127 107/125/127 82/98/127
f 61/55/29 60/67/29 110/101/29
f 52/56/30 51/52/30 101/123/30
f 70/57/31 69/59/31 119/109/31
f 58/58/32 56/61/32 106/107/32
f 69/59/33 68/62/33 118/124/33
f 66/60/34 65/5/34 115/80/34
f 51/52/35 75/53/35 125/111/35
f 75/53/36 74/64/36 124/116/36
f 56/61/37 55/73/37 105/93/37
f 68/62/38 67/70/38 117/113/38
f 63/63/39 62/65/39 112/118/39
f 74/64/40 73/68/40 123/121/40
f 62/65/41 61/55/41 111/122/41
f 71/66/42 70/57/42 120/104/42
f 60/67/43 59/74/43 109/120/43
f 73/68/44 57/75/44 107/125/44
f 54/69/45 53/72/45 103/89/45
f 67/70/46 66/60/46 116/85/46
f 64/71/47 63/63/47 113/114/47
f 53/72/48 52/56/48 102/103/48
f 72/54/49 71/66/49 121/119/49
f 55/73/50 54/69/50 104/81/50
f 59/74/51 58/58/51 108/96/51
f 57/75/52 72/54/52 122/91/52
