# Blender 4.4.1
# www.blender.org
mtllib 4.mtl
o Cube.004
v -0.060235 0.098894 0.014348
v -0.109927 -0.006078 0.014348
v -0.109314 -0.017735 0.014348
v -0.083450 -0.060874 0.014348
v 0.051940 0.126404 0.014348
v -0.058425 -0.042146 0.014348
v 0.036039 -0.069749 0.014348
v 0.020704 -0.088764 0.014348
v -0.078668 -0.097965 0.014348
v -0.045544 -0.042146 0.014348
v 0.039106 -0.042759 0.014348
v 0.062172 -0.025824 0.014348
v 0.075667 0.047785 0.014348
v 0.048677 0.038584 0.014348
v 0.056038 0.071707 0.014348
v 0.051744 0.074161 0.014348
v 0.017715 0.063603 0.014348
v 0.044383 -0.043612 0.014348
v -0.064281 0.109953 0.009048
v -0.117443 -0.006439 0.009048
v -0.118627 -0.018910 0.009048
v -0.086050 -0.071808 0.009048
v 0.064530 0.135295 0.009048
v -0.054890 -0.046445 0.009048
v 0.041911 -0.072780 0.009048
v 0.022310 -0.095609 0.009048
v -0.087905 -0.103677 0.009048
v -0.052468 -0.046090 0.009048
v 0.044837 -0.051716 0.009048
v 0.071289 -0.033952 0.009048
v 0.092825 0.064320 0.009048
v 0.060401 0.054121 0.009048
v 0.063306 0.082103 0.009048
v 0.055518 0.086148 0.009048
v 0.039346 0.079468 0.009048
v 0.052968 -0.052983 0.009048
v -0.064281 0.109953 -0.000000
v -0.117443 -0.006439 0.000000
v -0.118627 -0.018910 0.000000
v -0.086050 -0.071808 0.000000
v 0.064530 0.135295 -0.000000
v -0.054890 -0.046445 0.000000
v 0.041911 -0.072780 0.000000
v 0.022310 -0.095609 0.000000
v -0.087905 -0.103677 0.000000
v -0.052468 -0.046090 0.000000
v 0.044837 -0.051716 0.000000
v 0.071289 -0.033952 0.000000
v 0.092825 0.064320 -0.000000
v 0.060401 0.054121 -0.000000
v 0.063306 0.082103 -0.000000
v 0.055518 0.086148 -0.000000
v 0.039346 0.079468 -0.000000
v 0.052968 -0.052983 0.000000
v -0.060235 0.098894 -0.014348
v -0.109927 -0.006078 -0.014348
v -0.109314 -0.017735 -0.014348
v -0.083450 -0.060874 -0.014348
v 0.051940 0.126404 -0.014348
v -0.058425 -0.042146 -0.014348
v 0.036039 -0.069749 -0.014348
v 0.020704 -0.088764 -0.014348
v -0.078668 -0.097965 -0.014348
v -0.045544 -0.042146 -0.014348
v 0.039106 -0.042759 -0.014348
v 0.062172 -0.025824 -0.014348
v 0.075667 0.047785 -0.014348
v 0.048677 0.038584 -0.014348
v 0.056038 0.071707 -0.014348
v 0.051744 0.074161 -0.014348
v 0.017715 0.063603 -0.014348
v 0.044383 -0.043612 -0.014348
v -0.064281 0.109953 -0.009048
v -0.117443 -0.006439 -0.009048
v -0.118627 -0.018910 -0.009048
v -0.086050 -0.071808 -0.009048
v 0.064530 0.135295 -0.009048
v -0.054890 -0.046445 -0.009048
v 0.041911 -0.072780 -0.009048
v 0.022310 -0.095609 -0.009048
v -0.087905 -0.103677 -0.009048
v -0.052468 -0.046090 -0.009048
v 0.044837 -0.051716 -0.009048
v 0.071289 -0.033952 -0.009048
v 0.092825 0.064320 -0.009048
v 0.060401 0.054121 -0.009048
v 0.063306 0.082103 -0.009048
v 0.055518 0.086148 -0.009048
v 0.039346 0.079468 -0.009048
v 0.052968 -0.052983 -0.009048
vn -0.6269 0.3858 0.6769
vn -0.1536 0.4951 0.8551
vn -0.0000 -0.8022 0.5970
vn -0.5639 0.2669 0.7815
vn 0.3635 -0.0797 0.9282
vn -0.1409 0.4132 0.8997
vn 0.4931 -0.3977 0.7738
vn 0.5114 -0.2307 0.8278
vn 0.0861 0.5488 -0.8315
vn 0.0880 0.5487 -0.8314
vn 0.0887 0.5487 -0.8313
vn -0.4724 -0.2909 0.8320
vn -0.0983 0.4006 0.9110
vn 0.2819 -0.2819 0.9171
vn -0.4986 0.0473 0.8656
vn 0.6490 -0.0674 0.7578
vn 0.0558 -0.6030 0.7958
vn 0.6161 -0.0700 0.7845
vn 0.4134 -0.5524 0.7238
vn 0.1814 0.3493 0.9193
vn -0.8515 -0.5244 -0.0000
vn -0.1930 0.9812 -0.0000
vn 0.7204 -0.6935 -0.0000
vn -0.9955 0.0945 -0.0000
vn 0.9947 -0.1033 -0.0000
vn 0.0730 -0.9973 -0.0000
vn 0.9905 -0.1376 -0.0000
vn 0.6313 -0.7756 -0.0000
vn 0.4609 0.8874 -0.0000
vn -0.8517 0.5241 -0.0000
vn -0.3818 0.9243 -0.0000
vn 0.1450 -0.9894 -0.0000
vn -0.9096 0.4155 -0.0000
vn 0.9768 -0.2141 -0.0000
vn -0.3001 0.9539 -0.0000
vn 0.7587 -0.6514 -0.0000
vn 0.9115 -0.4112 -0.0000
vn 0.1540 0.9881 -0.0000
vn -0.0000 -0.0000 1.0000
vn -0.6901 0.4095 -0.5968
vn -0.1536 0.4951 -0.8551
vn -0.0000 -0.8022 -0.5970
vn -0.5639 0.2669 -0.7815
vn 0.4455 -0.0817 -0.8916
vn -0.1409 0.4132 -0.8997
vn 0.4931 -0.3977 -0.7738
vn 0.3701 -0.2017 -0.9068
vn 0.0887 0.5487 0.8313
vn -0.4503 -0.2700 -0.8511
vn -0.0983 0.4006 -0.9110
vn 0.2819 -0.2819 -0.9171
vn -0.5751 -0.0302 -0.8176
vn 0.5357 -0.1190 -0.8360
vn 0.0558 -0.6030 -0.7958
vn 0.6161 -0.0700 -0.7845
vn 0.4134 -0.5524 -0.7238
vn 0.1920 0.3359 -0.9221
vn -0.0000 -0.0000 -1.0000
vn -0.6901 0.4095 0.5968
vn -0.1840 0.4453 0.8763
vn 0.1078 -0.7357 0.6687
vn -0.4906 0.2241 0.8421
vn 0.4455 -0.0817 0.8916
vn -0.1339 0.4258 0.8948
vn 0.5177 -0.4445 0.7310
vn 0.3701 -0.2017 0.9068
vn 0.0855 0.5487 -0.8316
vn -0.4503 -0.2700 0.8511
vn -0.1243 0.6320 0.7649
vn 0.2778 -0.2674 0.9227
vn -0.5751 -0.0302 0.8176
vn 0.5357 -0.1190 0.8360
vn 0.0530 -0.7239 0.6878
vn 0.6416 -0.0891 0.7618
vn 0.3867 -0.4751 0.7904
vn 0.1920 0.3359 0.9221
vn -0.6269 0.3858 -0.6769
vn -0.1840 0.4453 -0.8763
vn 0.1078 -0.7357 -0.6687
vn -0.4906 0.2241 -0.8421
vn 0.3635 -0.0797 -0.9282
vn -0.1339 0.4258 -0.8948
vn 0.5177 -0.4445 -0.7310
vn 0.5114 -0.2307 -0.8278
vn 0.0855 0.5487 0.8316
vn -0.4724 -0.2909 -0.8320
vn -0.1243 0.6320 -0.7649
vn 0.2778 -0.2674 -0.9227
vn -0.4986 0.0473 -0.8656
vn 0.6490 -0.0674 -0.7578
vn 0.0530 -0.7239 -0.6878
vn 0.6416 -0.0891 -0.7618
vn 0.3867 -0.4751 -0.7904
vn 0.1814 0.3493 -0.9193
vt 0.248939 0.056082
vt 0.356320 0.268703
vt 0.211078 0.032671
vt 0.783450 0.761567
vt 0.732633 0.783318
vt 0.643975 0.718294
vt 0.331905 0.284867
vt 0.384701 0.284867
vt 0.324488 0.862937
vt 0.090013 0.431218
vt 0.120816 0.432695
vt 0.881501 0.653460
vt 0.863556 0.318448
vt 0.951828 0.721231
vt 0.818933 0.679431
vt 0.770880 0.615748
vt 0.656226 0.093794
vt 0.743146 0.159307
vt 0.719079 0.171732
vt 0.784251 0.975693
vt 0.835857 1.012132
vt 0.753281 0.278856
vt 0.755139 0.245644
vt 0.731650 0.282353
vt 0.229335 0.208105
vt 0.085160 0.380104
vt 0.218680 0.163290
vt 0.307906 0.908264
vt 0.826191 0.351766
vt 0.123330 0.384917
vt 0.801049 0.751511
vt 0.830840 0.794120
vt 0.662809 0.065742
vt 0.346395 0.267247
vt 0.798918 0.810698
vt 0.788465 0.240448
s 1
usemtl Material.004
f 9/1/1 28/2/1 27/3/1
f 16/4/2 35/5/2 17/6/2
f 6/7/3 28/2/3 10/8/3
f 1/9/4 20/10/4 2/11/4
f 13/12/5 30/13/5 31/14/5
f 13/12/6 32/15/6 14/16/6
f 8/17/7 25/18/7 7/19/7
f 5/20/8 35/5/8 23/21/8
f 18/22/9 29/23/10 11/24/11
f 4/25/12 21/26/12 22/27/12
f 5/20/13 19/28/13 1/9/13
f 18/22/14 30/13/14 12/29/14
f 3/30/15 20/10/15 21/26/15
f 15/31/16 32/15/16 33/32/16
f 9/1/17 26/33/17 8/17/17
f 7/19/18 29/23/18 11/24/18
f 4/25/19 24/34/19 6/7/19
f 16/4/20 33/32/20 34/35/20
f 21/26/21 40/27/21 22/27/21
f 23/21/22 37/28/22 19/28/22
f 36/36/23 48/13/23 30/13/23
f 20/10/24 39/26/24 21/26/24
f 32/15/25 51/32/25 33/32/25
f 27/3/26 44/33/26 26/33/26
f 25/18/27 47/23/27 29/23/27
f 22/27/28 42/34/28 24/34/28
f 33/32/29 52/35/29 34/35/29
f 28/2/30 45/3/30 27/3/30
f 34/35/31 53/5/31 35/5/31
f 24/34/32 46/2/32 28/2/32
f 19/28/33 38/10/33 20/10/33
f 30/13/34 49/14/34 31/14/34
f 31/14/35 50/15/35 32/15/35
f 26/33/36 43/18/36 25/18/36
f 35/5/37 41/21/37 23/21/37
f 36/36/38 47/23/38 29/23/38
f 7/19/39 11/24/39 10/8/39
f 63/1/40 82/2/40 64/8/40
f 89/5/41 70/4/41 71/6/41
f 82/2/42 60/7/42 64/8/42
f 74/10/43 55/9/43 56/11/43
f 67/12/44 84/13/44 66/29/44
f 86/15/45 67/12/45 68/16/45
f 79/18/46 62/17/46 61/19/46
f 59/20/47 89/5/47 71/6/47
f 83/23/48 72/22/48 65/24/48
f 58/25/49 75/26/49 57/30/49
f 73/28/50 59/20/50 55/9/50
f 84/13/51 72/22/51 66/29/51
f 57/30/52 74/10/52 56/11/52
f 69/31/53 86/15/53 68/16/53
f 80/33/54 63/1/54 62/17/54
f 83/23/55 61/19/55 65/24/55
f 78/34/56 58/25/56 60/7/56
f 70/4/57 87/32/57 69/31/57
f 40/27/21 75/26/21 76/27/21
f 37/28/22 77/21/22 73/28/22
f 48/13/23 90/36/23 84/13/23
f 39/26/24 74/10/24 75/26/24
f 51/32/25 86/15/25 87/32/25
f 44/33/26 81/3/26 80/33/26
f 47/23/27 79/18/27 83/23/27
f 42/34/28 76/27/28 78/34/28
f 52/35/29 87/32/29 88/35/29
f 45/3/30 82/2/30 81/3/30
f 53/5/31 88/35/31 89/5/31
f 46/2/32 78/34/32 82/2/32
f 38/10/33 73/28/33 74/10/33
f 49/14/34 84/13/34 85/14/34
f 50/15/35 85/14/35 86/15/35
f 43/18/36 80/33/36 79/18/36
f 41/21/37 89/5/37 77/21/37
f 47/23/38 90/36/38 83/23/38
f 64/8/58 68/16/58 65/24/58
f 9/1/59 10/8/59 28/2/59
f 16/4/60 34/35/60 35/5/60
f 6/7/61 24/34/61 28/2/61
f 1/9/62 19/28/62 20/10/62
f 13/12/63 12/29/63 30/13/63
f 13/12/64 31/14/64 32/15/64
f 8/17/65 26/33/65 25/18/65
f 5/20/66 17/6/66 35/5/66
f 18/22/9 36/36/67 29/23/10
f 4/25/68 3/30/68 21/26/68
f 5/20/69 23/21/69 19/28/69
f 18/22/70 36/36/70 30/13/70
f 3/30/71 2/11/71 20/10/71
f 15/31/72 14/16/72 32/15/72
f 9/1/73 27/3/73 26/33/73
f 7/19/74 25/18/74 29/23/74
f 4/25/75 22/27/75 24/34/75
f 16/4/76 15/31/76 33/32/76
f 21/26/21 39/26/21 40/27/21
f 23/21/22 41/21/22 37/28/22
f 36/36/23 54/36/23 48/13/23
f 20/10/24 38/10/24 39/26/24
f 32/15/25 50/15/25 51/32/25
f 27/3/26 45/3/26 44/33/26
f 25/18/27 43/18/27 47/23/27
f 22/27/28 40/27/28 42/34/28
f 33/32/29 51/32/29 52/35/29
f 28/2/30 46/2/30 45/3/30
f 34/35/31 52/35/31 53/5/31
f 24/34/32 42/34/32 46/2/32
f 19/28/33 37/28/33 38/10/33
f 30/13/34 48/13/34 49/14/34
f 31/14/35 49/14/35 50/15/35
f 26/33/36 44/33/36 43/18/36
f 35/5/37 53/5/37 41/21/37
f 36/36/38 54/36/38 47/23/38
f 5/20/39 1/9/39 17/6/39
f 1/9/39 2/11/39 10/8/39
f 17/6/39 1/9/39 10/8/39
f 2/11/39 3/30/39 6/7/39
f 3/30/39 4/25/39 6/7/39
f 15/31/39 16/4/39 14/16/39
f 16/4/39 17/6/39 14/16/39
f 12/29/39 13/12/39 14/16/39
f 2/11/39 6/7/39 10/8/39
f 10/8/39 9/1/39 8/17/39
f 12/29/39 14/16/39 11/24/39
f 14/16/39 17/6/39 10/8/39
f 11/24/39 14/16/39 10/8/39
f 11/24/39 18/22/39 12/29/39
f 8/17/39 7/19/39 10/8/39
f 63/1/77 81/3/77 82/2/77
f 89/5/78 88/35/78 70/4/78
f 82/2/79 78/34/79 60/7/79
f 74/10/80 73/28/80 55/9/80
f 67/12/81 85/14/81 84/13/81
f 86/15/82 85/14/82 67/12/82
f 79/18/83 80/33/83 62/17/83
f 59/20/84 77/21/84 89/5/84
f 83/23/85 90/36/85 72/22/85
f 58/25/86 76/27/86 75/26/86
f 73/28/87 77/21/87 59/20/87
f 84/13/88 90/36/88 72/22/88
f 57/30/89 75/26/89 74/10/89
f 69/31/90 87/32/90 86/15/90
f 80/33/91 81/3/91 63/1/91
f 83/23/92 79/18/92 61/19/92
f 78/34/93 76/27/93 58/25/93
f 70/4/94 88/35/94 87/32/94
f 40/27/21 39/26/21 75/26/21
f 37/28/22 41/21/22 77/21/22
f 48/13/23 54/36/23 90/36/23
f 39/26/24 38/10/24 74/10/24
f 51/32/25 50/15/25 86/15/25
f 44/33/26 45/3/26 81/3/26
f 47/23/27 43/18/27 79/18/27
f 42/34/28 40/27/28 76/27/28
f 52/35/29 51/32/29 87/32/29
f 45/3/30 46/2/30 82/2/30
f 53/5/31 52/35/31 88/35/31
f 46/2/32 42/34/32 78/34/32
f 38/10/33 37/28/33 73/28/33
f 49/14/34 48/13/34 84/13/34
f 50/15/35 49/14/35 85/14/35
f 43/18/36 44/33/36 80/33/36
f 41/21/37 53/5/37 89/5/37
f 47/23/38 54/36/38 90/36/38
f 56/11/58 55/9/58 64/8/58
f 55/9/58 59/20/58 71/6/58
f 71/6/58 70/4/58 68/16/58
f 70/4/58 69/31/58 68/16/58
f 55/9/58 71/6/58 64/8/58
f 58/25/58 57/30/58 60/7/58
f 57/30/58 56/11/58 60/7/58
f 68/16/58 67/12/58 66/29/58
f 71/6/58 68/16/58 64/8/58
f 64/8/58 60/7/58 56/11/58
f 62/17/58 63/1/58 64/8/58
f 65/24/58 61/19/58 64/8/58
f 61/19/58 62/17/58 64/8/58
f 66/29/58 72/22/58 65/24/58
f 68/16/58 66/29/58 65/24/58
