# Blender v3.2.1 OBJ File: 'untitled.blend'
# www.blender.org
mtllib 1.mtl
o Cube.001
v -0.028530 -0.111464 0.014909
v 0.056835 -0.071592 0.014909
v 0.049686 0.091983 0.014909
v 0.068081 0.057733 0.014909
v 0.071659 -0.036322 0.014909
v 0.041500 -0.041945 0.014909
v -0.058511 0.078172 0.014909
v -0.043865 -0.052168 0.014909
v -0.057156 -0.097151 0.014909
v -0.074024 -0.054213 0.014909
v -0.009106 0.027063 0.014909
v -0.026485 0.019907 0.014909
v -0.023582 0.070079 0.014909
v 0.023275 0.092229 0.014909
v -0.029581 -0.117713 0.008519
v 0.063400 -0.081603 0.008519
v 0.055435 0.101491 0.008519
v 0.083597 0.061877 0.008519
v 0.089288 -0.020399 0.008519
v 0.060797 -0.026267 0.008519
v -0.071931 0.089440 0.008519
v -0.051353 -0.040692 0.008519
v -0.080695 -0.047667 0.008519
v -0.019014 0.018175 0.008519
v -0.030711 0.008035 0.008519
v -0.024068 0.082937 0.008519
v 0.023551 0.100915 0.008519
v -0.029581 -0.117713 0.000000
v 0.063400 -0.081603 0.000000
v 0.055435 0.101491 0.000000
v 0.083597 0.061877 0.000000
v 0.089288 -0.020399 0.000000
v 0.060797 -0.026267 0.000000
v -0.071931 0.089440 0.000000
v -0.051353 -0.040692 0.000000
v -0.058493 -0.100840 0.000000
v -0.080695 -0.047667 0.000000
v -0.019014 0.018175 0.000000
v -0.030711 0.008035 0.000000
v -0.024068 0.082937 0.000000
v 0.023551 0.100915 0.000000
v -0.028530 -0.111464 -0.014909
v 0.056835 -0.071592 -0.014909
v 0.049686 0.091983 -0.014909
v 0.068081 0.057733 -0.014909
v 0.071659 -0.036322 -0.014909
v 0.041500 -0.041945 -0.014909
v -0.058511 0.078172 -0.014909
v -0.043865 -0.052168 -0.014909
v -0.057156 -0.097151 -0.014909
v -0.074024 -0.054213 -0.014909
v -0.009106 0.027063 -0.014909
v -0.026485 0.019907 -0.014909
v -0.023582 0.070079 -0.014909
v 0.023275 0.092229 -0.014909
v -0.029581 -0.117713 -0.008519
v 0.063400 -0.081603 -0.008519
v 0.055435 0.101491 -0.008519
v 0.083597 0.061877 -0.008519
v 0.089288 -0.020399 -0.008519
v 0.060797 -0.026267 -0.008519
v -0.071931 0.089440 -0.008519
v -0.051353 -0.040692 -0.008519
v -0.080695 -0.047667 -0.008519
v -0.019014 0.018175 -0.008519
v -0.030711 0.008035 -0.008519
v -0.024068 0.082937 -0.008519
v 0.023551 0.100915 -0.008519
vt 0.308260 0.805141
vt 0.501483 0.896483
vt 0.367954 0.627758
vt 0.283520 0.030749
vt 0.164297 0.100326
vt 0.169812 0.115540
vt 0.164220 0.838516
vt 0.278862 0.549293
vt 0.108883 0.884982
vt 0.100251 0.292603
vt 0.193741 0.348357
vt 0.224617 0.301034
vt 0.610391 0.895466
vt 0.502618 0.932300
vt 0.634098 0.934675
vt 0.701001 0.366379
vt 0.656212 0.407841
vt 0.773698 0.432038
vt 0.287854 0.056519
vt 0.666945 0.179652
vt 0.686246 0.754232
vt 0.576636 0.343192
vt 0.327094 0.591108
vt 0.072743 0.319597
vt 0.750232 0.771318
vt 0.296285 0.598248
vt 0.639872 0.220934
vt 0.306255 0.858164
vt 0.656212 0.407841
vt 0.193741 0.348357
vt 0.666945 0.179652
vt 0.327094 0.591108
vt 0.072743 0.319597
vt 0.750232 0.771318
vt 0.278862 0.549293
vt 0.502618 0.932300
vt 0.306255 0.858164
vt 0.108883 0.884982
vt 0.634098 0.934675
vt 0.773698 0.432038
vt 0.283520 0.030749
vt 0.576636 0.343192
vt 0.224617 0.301034
vt 0.287854 0.056519
vt 0.283520 0.030749
vt 0.169812 0.115540
vt 0.164220 0.838516
vt 0.278862 0.549293
vt 0.296285 0.598248
vt 0.193741 0.348357
vt 0.100251 0.292603
vt 0.610391 0.895466
vt 0.502618 0.932300
vt 0.501483 0.896483
vt 0.701001 0.366379
vt 0.656212 0.407841
vt 0.666945 0.179652
vt 0.639872 0.220934
vt 0.686246 0.754232
vt 0.327094 0.591108
vt 0.367954 0.627758
vt 0.072743 0.319597
vt 0.750232 0.771318
vt 0.306255 0.858164
vt 0.308260 0.805141
vt 0.634098 0.934675
vt 0.773698 0.432038
vt 0.108883 0.884982
vn 0.0000 0.0000 -1.0000
vn 0.5417 0.8033 -0.2474
vn 0.6070 0.3074 -0.7328
vn 0.0319 -0.4703 -0.8820
vn 0.0102 -0.5620 -0.8271
vn 0.0946 -0.4592 -0.8833
vn -0.2755 0.7095 -0.6486
vn -0.3872 0.1033 -0.9162
vn 0.3245 0.6490 -0.6881
vn 0.6939 -0.3044 -0.6526
vn 0.7991 0.3139 -0.5127
vn -0.3334 -0.1790 -0.9256
vn -0.4700 0.5422 -0.6965
vn -0.4988 0.2096 -0.8410
vn 0.2199 -0.5826 -0.7825
vn -0.1033 -0.4458 -0.8892
vn 0.0000 0.0000 1.0000
vn 0.8765 -0.4815 0.0000
vn 0.9030 0.4296 0.0000
vn -0.8150 -0.5794 0.0000
vn -0.6551 0.7556 0.0000
vn -0.9210 0.3896 0.0000
vn 0.3532 -0.9355 0.0000
vn -0.1346 -0.9909 0.0000
vn 0.8921 0.4517 0.0000
vn 0.2312 -0.9729 0.0000
vn 0.0181 -0.9998 0.0000
vn 0.2017 -0.9794 0.0000
vn -0.3620 0.9322 0.0000
vn -0.9681 0.2504 0.0000
vn 0.5417 0.8033 0.2474
vn 0.4919 0.2704 0.8276
vn 0.0319 -0.4703 0.8820
vn -0.0055 -0.5924 0.8056
vn 0.0868 -0.4658 0.8806
vn -0.2009 0.4301 0.8802
vn -0.3872 0.1033 0.9162
vn 0.3245 0.6490 0.6881
vn 0.6939 -0.3044 0.6526
vn 0.7991 0.3139 0.5127
vn -0.3334 -0.1790 0.9256
vn -0.3125 0.7590 0.5711
vn -0.4988 0.2096 0.8410
vn 0.2031 -0.4296 0.8799
vn -0.1033 -0.4458 0.8892
vn 0.5040 0.8637 0.0000
vn 0.4919 0.2704 -0.8276
vn 0.1453 -0.6113 -0.7780
vn -0.0055 -0.5924 -0.8056
vn 0.0868 -0.4658 -0.8806
vn -0.2009 0.4301 -0.8802
vn -0.4023 0.1041 -0.9096
vn 0.4096 -0.2250 -0.8841
vn -0.4328 -0.3077 -0.8473
vn -0.3125 0.7590 -0.5711
vn -0.4947 0.2093 -0.8435
vn 0.2031 -0.4296 -0.8799
vn -0.0759 -0.5587 -0.8259
vn 0.9085 0.3793 -0.1754
vn 0.6070 0.3074 0.7328
vn 0.1453 -0.6113 0.7780
vn 0.0102 -0.5620 0.8271
vn 0.0946 -0.4592 0.8833
vn -0.2755 0.7095 0.6486
vn -0.4023 0.1041 0.9096
vn 0.4096 -0.2250 0.8841
vn -0.4328 -0.3077 0.8473
vn -0.4700 0.5422 0.6965
vn -0.4947 0.2093 0.8435
vn 0.2199 -0.5826 0.7825
vn -0.0759 -0.5587 0.8259
vn 0.9085 0.3793 0.1754
usemtl Material
s off
f 13/1/1 14/2/1 11/3/1
f 15/4/2 36/5/2 9/6/2
f 7/7/3 25/8/3 21/9/3
f 10/10/4 22/11/4 8/12/4
f 3/13/5 27/14/5 17/15/5
f 5/16/6 20/17/6 19/18/6
f 1/19/7 16/20/7 15/4/7
f 4/21/8 20/17/8 6/22/8
f 9/6/9 1/19/9 15/4/9
f 8/12/10 24/23/10 11/3/10
f 10/10/11 9/6/11 23/24/11
f 3/13/12 18/25/12 4/21/12
f 12/26/13 24/23/13 25/8/13
f 5/16/14 16/20/14 2/27/14
f 14/2/15 26/28/15 27/14/15
f 7/7/16 26/28/16 13/1/16
f 33/29/17 35/30/17 29/31/17
f 22/11/18 38/32/18 24/23/18
f 9/6/19 37/33/19 23/24/19
f 17/15/20 31/34/20 18/25/20
f 24/23/21 39/35/21 25/8/21
f 19/18/22 29/31/22 16/20/22
f 26/28/23 41/36/23 27/14/23
f 21/9/24 40/37/24 26/28/24
f 25/8/25 34/38/25 21/9/25
f 23/24/26 35/30/26 22/11/26
f 27/14/27 30/39/27 17/15/27
f 20/17/28 32/40/28 19/18/28
f 16/20/29 28/41/29 15/4/29
f 18/25/30 33/29/30 20/17/30
f 47/42/17 49/43/17 42/44/17
f 36/5/31 56/45/31 50/46/31
f 48/47/32 66/48/32 53/49/32
f 63/50/33 51/51/33 49/43/33
f 44/52/34 68/53/34 55/54/34
f 46/55/35 61/56/35 47/42/35
f 42/44/36 57/57/36 43/58/36
f 61/56/37 45/59/37 47/42/37
f 50/46/38 56/45/38 42/44/38
f 65/60/39 49/43/39 52/61/39
f 51/51/40 64/62/40 50/46/40
f 59/63/41 44/52/41 45/59/41
f 53/49/42 65/60/42 52/61/42
f 57/57/43 46/55/43 43/58/43
f 55/54/44 67/64/44 54/65/44
f 67/64/45 48/47/45 54/65/45
f 38/32/18 63/50/18 65/60/18
f 37/33/19 50/46/19 64/62/19
f 31/34/20 58/66/20 59/63/20
f 39/35/21 65/60/21 66/48/21
f 29/31/22 60/67/22 57/57/22
f 41/36/23 67/64/23 68/53/23
f 40/37/24 62/68/24 67/64/24
f 34/38/25 66/48/25 62/68/25
f 35/30/26 64/62/26 63/50/26
f 30/39/27 68/53/27 58/66/27
f 32/40/28 61/56/28 60/67/28
f 28/41/29 57/57/29 56/45/29
f 33/29/30 59/63/30 61/56/30
f 3/13/1 4/21/1 14/2/1
f 4/21/1 6/22/1 11/3/1
f 14/2/1 4/21/1 11/3/1
f 6/22/1 5/16/1 2/27/1
f 2/27/1 1/19/1 6/22/1
f 1/19/1 9/6/1 8/12/1
f 6/22/1 1/19/1 8/12/1
f 9/6/1 10/10/1 8/12/1
f 11/3/1 12/26/1 13/1/1
f 12/26/1 7/7/1 13/1/1
f 8/12/1 11/3/1 6/22/1
f 15/4/46 28/41/46 36/5/46
f 7/7/47 12/26/47 25/8/47
f 10/10/48 23/24/48 22/11/48
f 3/13/49 14/2/49 27/14/49
f 5/16/50 6/22/50 20/17/50
f 1/19/51 2/27/51 16/20/51
f 4/21/52 18/25/52 20/17/52
f 8/12/53 22/11/53 24/23/53
f 3/13/54 17/15/54 18/25/54
f 12/26/55 11/3/55 24/23/55
f 5/16/56 19/18/56 16/20/56
f 14/2/57 13/1/57 26/28/57
f 7/7/58 21/9/58 26/28/58
f 33/29/17 31/34/17 38/32/17
f 31/34/17 30/39/17 41/36/17
f 38/32/17 31/34/17 41/36/17
f 41/36/17 40/37/17 38/32/17
f 40/37/17 34/38/17 38/32/17
f 34/38/17 39/35/17 38/32/17
f 29/31/17 32/40/17 33/29/17
f 36/5/17 28/41/17 35/30/17
f 28/41/17 29/31/17 35/30/17
f 35/30/17 37/33/17 36/5/17
f 38/32/17 35/30/17 33/29/17
f 22/11/18 35/30/18 38/32/18
f 9/6/59 36/5/59 37/33/59
f 17/15/20 30/39/20 31/34/20
f 24/23/21 38/32/21 39/35/21
f 19/18/22 32/40/22 29/31/22
f 26/28/23 40/37/23 41/36/23
f 21/9/24 34/38/24 40/37/24
f 25/8/25 39/35/25 34/38/25
f 23/24/26 37/33/26 35/30/26
f 27/14/27 41/36/27 30/39/27
f 20/17/28 33/29/28 32/40/28
f 16/20/29 29/31/29 28/41/29
f 18/25/30 31/34/30 33/29/30
f 47/42/17 45/59/17 52/61/17
f 45/59/17 44/52/17 55/54/17
f 52/61/17 45/59/17 55/54/17
f 55/54/17 54/65/17 52/61/17
f 54/65/17 48/47/17 53/49/17
f 54/65/17 53/49/17 52/61/17
f 43/58/17 46/55/17 47/42/17
f 50/46/17 42/44/17 49/43/17
f 42/44/17 43/58/17 47/42/17
f 49/43/17 51/51/17 50/46/17
f 52/61/17 49/43/17 47/42/17
f 36/5/46 28/41/46 56/45/46
f 48/47/60 62/68/60 66/48/60
f 63/50/61 64/62/61 51/51/61
f 44/52/62 58/66/62 68/53/62
f 46/55/63 60/67/63 61/56/63
f 42/44/64 56/45/64 57/57/64
f 61/56/65 59/63/65 45/59/65
f 65/60/66 63/50/66 49/43/66
f 59/63/67 58/66/67 44/52/67
f 53/49/68 66/48/68 65/60/68
f 57/57/69 60/67/69 46/55/69
f 55/54/70 68/53/70 67/64/70
f 67/64/71 62/68/71 48/47/71
f 38/32/18 35/30/18 63/50/18
f 37/33/72 36/5/72 50/46/72
f 31/34/20 30/39/20 58/66/20
f 39/35/21 38/32/21 65/60/21
f 29/31/22 32/40/22 60/67/22
f 41/36/23 40/37/23 67/64/23
f 40/37/24 34/38/24 62/68/24
f 34/38/25 39/35/25 66/48/25
f 35/30/26 37/33/26 64/62/26
f 30/39/27 41/36/27 68/53/27
f 32/40/28 33/29/28 61/56/28
f 28/41/29 29/31/29 57/57/29
f 33/29/30 31/34/30 59/63/30
