# Blender 4.4.1
# www.blender.org
o Cube.005
v -0.061326 0.095145 0.014348
v -0.032497 0.069382 0.014348
v -0.017775 0.076130 0.014348
v 0.081596 0.096985 0.014348
v 0.082210 -0.027535 0.014348
v 0.064421 -0.029375 0.014348
v 0.049699 0.014176 0.014348
v 0.025777 0.028284 0.014348
v -0.015935 0.018470 0.014348
v -0.014095 0.025217 0.014348
v 0.062581 0.029511 0.014348
v 0.054607 0.047913 0.014348
v 0.036818 -0.091329 0.014348
v -0.030043 -0.108504 0.014348
v -0.067460 -0.091329 0.014348
v -0.084636 -0.034283 0.014348
v -0.010414 -0.036123 0.014348
v -0.004893 -0.028762 0.014348
v -0.006120 -0.023241 0.014348
v -0.058873 -0.025695 0.014348
v -0.069301 -0.010360 0.014348
v -0.069032 0.108444 0.009048
v -0.032239 0.081801 0.009048
v -0.020149 0.086778 0.009048
v 0.098400 0.108411 0.009048
v 0.093281 -0.021971 0.009048
v 0.069808 -0.023575 0.009048
v 0.052541 0.016188 0.009048
v 0.029474 0.028565 0.009048
v -0.011643 0.017136 0.009048
v -0.011765 0.020880 0.009048
v 0.081516 0.015912 0.009048
v 0.063388 0.044688 0.009048
v 0.041315 -0.098602 0.009048
v -0.031415 -0.118665 0.009048
v -0.072570 -0.101067 0.009048
v -0.094112 -0.030399 0.009048
v -0.011762 -0.032002 0.009048
v -0.008923 -0.028299 0.009048
v -0.009335 -0.026446 0.009048
v -0.063278 -0.030721 0.009048
v -0.083048 -0.013494 0.009048
v -0.069032 0.108444 -0.000000
v -0.032239 0.081801 -0.000000
v -0.020149 0.086778 -0.000000
v 0.098400 0.108411 -0.000000
v 0.093281 -0.021971 0.000000
v 0.069808 -0.023575 0.000000
v 0.052541 0.016188 0.000000
v 0.029474 0.028565 0.000000
v -0.011643 0.017136 0.000000
v -0.011765 0.020880 0.000000
v 0.081516 0.015912 0.000000
v 0.063388 0.044688 -0.000000
v 0.041315 -0.098602 0.000000
v -0.031415 -0.118665 0.000000
v -0.072570 -0.101067 0.000000
v -0.094112 -0.030399 0.000000
v -0.011762 -0.032002 0.000000
v -0.008923 -0.028299 0.000000
v -0.009335 -0.026446 0.000000
v -0.063278 -0.030721 0.000000
v -0.083048 -0.013494 0.000000
v -0.061326 0.095145 -0.014348
v -0.032497 0.069382 -0.014348
v -0.017775 0.076130 -0.014348
v 0.081596 0.096985 -0.014348
v 0.082210 -0.027535 -0.014348
v 0.064421 -0.029375 -0.014348
v 0.049699 0.014176 -0.014348
v 0.025777 0.028284 -0.014348
v -0.015935 0.018470 -0.014348
v -0.014095 0.025217 -0.014348
v 0.062581 0.029511 -0.014348
v 0.054607 0.047913 -0.014348
v 0.036818 -0.091329 -0.014348
v -0.030043 -0.108504 -0.014348
v -0.067460 -0.091329 -0.014348
v -0.084636 -0.034283 -0.014348
v -0.010414 -0.036123 -0.014348
v -0.004893 -0.028762 -0.014348
v -0.006120 -0.023241 -0.014348
v -0.058873 -0.025695 -0.014348
v -0.069301 -0.010360 -0.014348
v -0.069032 0.108444 -0.009048
v -0.032239 0.081801 -0.009048
v -0.020149 0.086778 -0.009048
v 0.098400 0.108411 -0.009048
v 0.093281 -0.021971 -0.009048
v 0.069808 -0.023575 -0.009048
v 0.052541 0.016188 -0.009048
v 0.029474 0.028565 -0.009048
v -0.011643 0.017136 -0.009048
v -0.011765 0.020880 -0.009048
v 0.081516 0.015912 -0.009048
v 0.063388 0.044688 -0.009048
v 0.041315 -0.098602 -0.009048
v -0.031415 -0.118665 -0.009048
v -0.072570 -0.101067 -0.009048
v -0.094112 -0.030399 -0.009048
v -0.011762 -0.032002 -0.009048
v -0.008923 -0.028299 -0.009048
v -0.009335 -0.026446 -0.009048
v -0.063278 -0.030721 -0.009048
v -0.083048 -0.013494 -0.009048
vn 0.4717 0.7998 0.3714
vn -0.3651 0.0276 0.9306
vn -0.1858 -0.4346 0.8813
vn -0.2104 0.8941 -0.3954
vn -0.5337 -0.1613 0.8301
vn -0.5386 -0.1637 0.8265
vn -0.5410 -0.1649 0.8247
vn 0.8128 -0.2217 0.5387
vn 0.3793 0.5238 0.7628
vn 0.0160 0.8199 0.5723
vn -0.0207 -0.3879 0.9215
vn -0.1785 0.3893 0.9036
vn -0.6636 0.5076 0.5495
vn -0.6636 0.5076 0.5496
vn -0.6646 0.4985 0.5566
vn 0.5654 0.2450 0.7876
vn -0.0898 0.4277 0.8995
vn -0.7909 -0.1758 0.5861
vn -0.7910 -0.1759 0.5861
vn 0.4360 -0.2397 0.8675
vn 0.4363 -0.2398 0.8673
vn 0.4366 -0.2399 0.8671
vn -0.0733 0.7090 0.7014
vn 0.0403 -0.8656 0.4990
vn 0.5459 -0.3702 0.7517
vn 0.7715 0.3350 0.5409
vn -0.5241 -0.3564 0.7735
vn 0.1355 -0.5274 0.8387
vn 0.8276 -0.5613 -0.0000
vn 0.9172 0.3983 -0.0000
vn -0.6570 -0.7539 -0.0000
vn 0.2659 -0.9640 -0.0000
vn 0.4728 0.8812 -0.0000
vn -0.9935 0.1142 -0.0000
vn -0.3932 -0.9195 -0.0000
vn -0.2678 0.9635 -0.0000
vn -0.9565 -0.2916 -0.0000
vn 0.9995 0.0326 -0.0000
vn 0.5865 0.8099 -0.0000
vn 0.0195 0.9998 -0.0000
vn -0.0532 -0.9986 -0.0000
vn -0.3807 0.9247 -0.0000
vn -0.7936 0.6084 -0.0000
vn 0.8461 0.5330 -0.0000
vn -0.1795 0.9838 -0.0000
vn -0.9762 -0.2170 -0.0000
vn 0.8764 -0.4815 -0.0000
vn -0.0682 0.9977 -0.0000
vn 0.0790 -0.9969 -0.0000
vn -0.0000 -0.0000 1.0000
vn 0.4717 0.7998 -0.3714
vn -0.3651 0.0276 -0.9306
vn -0.1813 -0.3950 -0.9006
vn -0.2104 0.8941 0.3954
vn -0.5337 -0.1613 -0.8301
vn -0.5386 -0.1637 -0.8265
vn -0.5310 -0.1599 -0.8322
vn 0.8128 -0.2217 -0.5387
vn 0.3264 0.3653 -0.8718
vn 0.0196 0.7917 -0.6106
vn 0.0428 -0.7639 -0.6439
vn -0.1785 0.3893 -0.9036
vn -0.6636 0.5076 -0.5496
vn -0.6636 0.5076 -0.5495
vn -0.6646 0.4985 -0.5566
vn 0.5654 0.2450 -0.7876
vn -0.0898 0.4277 -0.8995
vn -0.7909 -0.1758 -0.5861
vn 0.4360 -0.2397 -0.8675
vn 0.4363 -0.2398 -0.8673
vn 0.4357 -0.2396 -0.8676
vn -0.0733 0.7090 -0.7014
vn 0.0403 -0.8656 -0.4990
vn 0.4547 -0.3235 -0.8298
vn 0.5739 0.1940 -0.7956
vn -0.5241 -0.3564 -0.7735
vn 0.1355 -0.5274 -0.8387
vn -0.0000 -0.0000 -1.0000
vn 0.4076 0.7596 0.5069
vn -0.4970 0.0571 0.8659
vn -0.1813 -0.3950 0.9006
vn -0.2654 0.9547 -0.1345
vn -0.5310 -0.1599 0.8322
vn 0.7800 0.0254 0.6253
vn 0.3264 0.3653 0.8718
vn 0.0196 0.7917 0.6106
vn 0.0428 -0.7639 0.6439
vn -0.1683 0.4089 0.8969
vn -0.6634 0.5086 0.5488
vn 0.4375 0.2756 0.8559
vn -0.0972 0.5329 0.8406
vn 0.4357 -0.2396 0.8676
vn -0.0505 0.7397 0.6710
vn 0.0593 -0.7485 0.6605
vn 0.4547 -0.3235 0.8298
vn 0.5739 0.1940 0.7956
vn -0.2771 -0.3180 0.9067
vn 0.1303 -0.4723 0.8718
vn 0.4076 0.7596 -0.5069
vn -0.4970 0.0571 -0.8659
vn -0.1858 -0.4346 -0.8813
vn -0.2654 0.9547 0.1345
vn -0.5410 -0.1649 -0.8247
vn 0.7800 0.0254 -0.6253
vn 0.3793 0.5238 -0.7628
vn 0.0160 0.8199 -0.5723
vn -0.0207 -0.3879 -0.9215
vn -0.1683 0.4089 -0.8969
vn -0.6634 0.5086 -0.5488
vn 0.4375 0.2756 -0.8559
vn -0.0972 0.5329 -0.8406
vn -0.7910 -0.1759 -0.5861
vn 0.4366 -0.2399 -0.8671
vn -0.0505 0.7397 -0.6710
vn 0.0593 -0.7485 -0.6605
vn 0.5459 -0.3702 -0.7517
vn 0.7715 0.3350 -0.5409
vn -0.2771 -0.3180 -0.9067
vn 0.1303 -0.4723 -0.8718
vt 0.730220 0.580935
vt 0.647465 0.639809
vt 0.632337 0.638661
vt 0.275943 0.912231
vt 0.187066 0.467718
vt 0.243316 0.480543
vt 0.403943 0.078973
vt 0.229938 0.109402
vt 0.398328 0.037400
vt 0.479230 0.593046
vt 0.461669 0.598504
vt 0.250845 0.149247
vt 0.141798 0.398553
vt 0.478731 0.608364
vt 0.469199 0.626112
vt 0.394958 0.857633
vt 0.244415 0.966646
vt 0.180570 0.382660
vt 0.478743 0.391990
vt 0.782925 0.643681
vt 0.860400 0.588036
vt 0.454140 0.834427
vt 0.393904 0.806819
vt 0.506846 0.405249
vt 0.484258 0.375131
vt 0.786227 0.705781
vt 0.750298 0.718975
vt 0.860730 0.919760
vt 0.444426 0.877995
vt 0.488674 0.414725
vt 0.490359 0.407143
vt 0.929483 0.966509
vt 0.863240 0.410268
vt 0.812496 0.426473
vt 0.790455 0.402739
vt 0.285982 0.417798
vt 0.501827 0.427837
vt 0.695913 0.119489
vt 0.908539 0.433035
vt 0.741846 0.589166
vt 0.267957 0.397234
vt 0.677513 0.149247
s 1
f 7/1/1 29/2/1 8/3/1
f 1/4/2 42/5/2 21/6/2
f 14/7/3 36/8/3 35/9/3
f 8/3/4 30/10/4 9/11/4
f 15/12/5 37/13/6 36/8/7
f 9/11/8 31/14/8 10/15/8
f 1/4/9 23/16/9 22/17/9
f 16/18/10 38/19/10 37/13/10
f 11/20/11 31/14/11 32/21/11
f 3/22/12 23/16/12 2/23/12
f 18/24/13 38/19/14 17/25/15
f 11/20/16 33/26/16 12/27/16
f 4/28/17 24/29/17 3/22/17
f 18/24/18 40/30/18 39/31/19
f 4/28/20 33/26/21 25/32/22
f 5/33/23 27/34/23 6/35/23
f 20/36/24 40/30/24 19/37/24
f 5/33/25 34/38/25 26/39/25
f 7/1/26 27/34/26 28/40/26
f 21/6/27 41/41/27 20/36/27
f 14/7/28 34/38/28 13/42/28
f 34/38/29 47/39/29 26/39/29
f 27/34/30 49/40/30 28/40/30
f 42/5/31 62/41/31 41/41/31
f 35/9/32 55/38/32 34/38/32
f 28/40/33 50/2/33 29/2/33
f 22/17/34 63/5/34 42/5/34
f 36/8/35 56/9/35 35/9/35
f 29/2/36 51/10/36 30/10/36
f 37/13/37 57/8/37 36/8/37
f 30/10/38 52/14/38 31/14/38
f 23/16/39 43/17/39 22/17/39
f 38/19/40 58/13/40 37/13/40
f 31/14/41 53/21/41 32/21/41
f 24/29/42 44/16/42 23/16/42
f 39/31/43 59/19/43 38/19/43
f 32/21/44 54/26/44 33/26/44
f 25/32/45 45/29/45 24/29/45
f 40/30/46 60/31/46 39/31/46
f 33/26/47 46/32/47 25/32/47
f 26/39/48 48/34/48 27/34/48
f 41/41/49 61/30/49 40/30/49
f 18/24/50 17/25/50 13/42/50
f 92/2/51 70/1/51 71/3/51
f 105/5/52 64/4/52 84/6/52
f 77/7/53 99/8/53 78/12/53
f 93/10/54 71/3/54 72/11/54
f 78/12/55 100/13/56 79/18/57
f 94/14/58 72/11/58 73/15/58
f 64/4/59 86/16/59 65/23/59
f 79/18/60 101/19/60 80/25/60
f 74/20/61 94/14/61 73/15/61
f 86/16/62 66/22/62 65/23/62
f 101/19/63 81/24/64 80/25/65
f 96/26/66 74/20/66 75/27/66
f 87/29/67 67/28/67 66/22/67
f 81/24/68 103/30/68 82/37/68
f 67/28/69 96/26/70 75/27/71
f 90/34/72 68/33/72 69/35/72
f 103/30/73 83/36/73 82/37/73
f 68/33/74 97/38/74 76/42/74
f 70/1/75 90/34/75 69/35/75
f 104/41/76 84/6/76 83/36/76
f 97/38/77 77/7/77 76/42/77
f 47/39/29 97/38/29 89/39/29
f 49/40/30 90/34/30 91/40/30
f 62/41/31 105/5/31 104/41/31
f 55/38/32 98/9/32 97/38/32
f 50/2/33 91/40/33 92/2/33
f 63/5/34 85/17/34 105/5/34
f 56/9/35 99/8/35 98/9/35
f 51/10/36 92/2/36 93/10/36
f 57/8/37 100/13/37 99/8/37
f 52/14/38 93/10/38 94/14/38
f 43/17/39 86/16/39 85/17/39
f 58/13/40 101/19/40 100/13/40
f 53/21/41 94/14/41 95/21/41
f 44/16/42 87/29/42 86/16/42
f 59/19/43 102/31/43 101/19/43
f 54/26/44 95/21/44 96/26/44
f 45/29/45 88/32/45 87/29/45
f 60/31/46 103/30/46 102/31/46
f 46/32/47 96/26/47 88/32/47
f 48/34/48 89/39/48 90/34/48
f 61/30/49 104/41/49 103/30/49
f 76/42/78 80/25/78 81/24/78
f 7/1/79 28/40/79 29/2/79
f 1/4/80 22/17/80 42/5/80
f 14/7/81 15/12/81 36/8/81
f 8/3/82 29/2/82 30/10/82
f 15/12/5 16/18/83 37/13/6
f 9/11/84 30/10/84 31/14/84
f 1/4/85 2/23/85 23/16/85
f 16/18/86 17/25/86 38/19/86
f 11/20/87 10/15/87 31/14/87
f 3/22/88 24/29/88 23/16/88
f 18/24/13 39/31/89 38/19/14
f 11/20/90 32/21/90 33/26/90
f 4/28/91 25/32/91 24/29/91
f 18/24/18 19/37/18 40/30/18
f 4/28/20 12/27/92 33/26/21
f 5/33/93 26/39/93 27/34/93
f 20/36/94 41/41/94 40/30/94
f 5/33/95 13/42/95 34/38/95
f 7/1/96 6/35/96 27/34/96
f 21/6/97 42/5/97 41/41/97
f 14/7/98 35/9/98 34/38/98
f 34/38/29 55/38/29 47/39/29
f 27/34/30 48/34/30 49/40/30
f 42/5/31 63/5/31 62/41/31
f 35/9/32 56/9/32 55/38/32
f 28/40/33 49/40/33 50/2/33
f 22/17/34 43/17/34 63/5/34
f 36/8/35 57/8/35 56/9/35
f 29/2/36 50/2/36 51/10/36
f 37/13/37 58/13/37 57/8/37
f 30/10/38 51/10/38 52/14/38
f 23/16/39 44/16/39 43/17/39
f 38/19/40 59/19/40 58/13/40
f 31/14/41 52/14/41 53/21/41
f 24/29/42 45/29/42 44/16/42
f 39/31/43 60/31/43 59/19/43
f 32/21/44 53/21/44 54/26/44
f 25/32/45 46/32/45 45/29/45
f 40/30/46 61/30/46 60/31/46
f 33/26/47 54/26/47 46/32/47
f 26/39/48 47/39/48 48/34/48
f 41/41/49 62/41/49 61/30/49
f 2/23/50 1/4/50 21/6/50
f 21/6/50 20/36/50 9/11/50
f 20/36/50 19/37/50 9/11/50
f 2/23/50 21/6/50 9/11/50
f 4/28/50 3/22/50 12/27/50
f 3/22/50 2/23/50 10/15/50
f 12/27/50 3/22/50 10/15/50
f 10/15/50 11/20/50 12/27/50
f 7/1/50 8/3/50 19/37/50
f 8/3/50 9/11/50 19/37/50
f 9/11/50 10/15/50 2/23/50
f 6/35/50 7/1/50 19/37/50
f 13/42/50 5/33/50 6/35/50
f 15/12/50 14/7/50 17/25/50
f 14/7/50 13/42/50 17/25/50
f 17/25/50 16/18/50 15/12/50
f 13/42/50 6/35/50 18/24/50
f 6/35/50 19/37/50 18/24/50
f 92/2/99 91/40/99 70/1/99
f 105/5/100 85/17/100 64/4/100
f 77/7/101 98/9/101 99/8/101
f 93/10/102 92/2/102 71/3/102
f 78/12/55 99/8/103 100/13/56
f 94/14/104 93/10/104 72/11/104
f 64/4/105 85/17/105 86/16/105
f 79/18/106 100/13/106 101/19/106
f 74/20/107 95/21/107 94/14/107
f 86/16/108 87/29/108 66/22/108
f 101/19/63 102/31/109 81/24/64
f 96/26/110 95/21/110 74/20/110
f 87/29/111 88/32/111 67/28/111
f 81/24/68 102/31/112 103/30/68
f 67/28/69 88/32/113 96/26/70
f 90/34/114 89/39/114 68/33/114
f 103/30/115 104/41/115 83/36/115
f 68/33/116 89/39/116 97/38/116
f 70/1/117 91/40/117 90/34/117
f 104/41/118 105/5/118 84/6/118
f 97/38/119 98/9/119 77/7/119
f 47/39/29 55/38/29 97/38/29
f 49/40/30 48/34/30 90/34/30
f 62/41/31 63/5/31 105/5/31
f 55/38/32 56/9/32 98/9/32
f 50/2/33 49/40/33 91/40/33
f 63/5/34 43/17/34 85/17/34
f 56/9/35 57/8/35 99/8/35
f 51/10/36 50/2/36 92/2/36
f 57/8/37 58/13/37 100/13/37
f 52/14/38 51/10/38 93/10/38
f 43/17/39 44/16/39 86/16/39
f 58/13/40 59/19/40 101/19/40
f 53/21/41 52/14/41 94/14/41
f 44/16/42 45/29/42 87/29/42
f 59/19/43 60/31/43 102/31/43
f 54/26/44 53/21/44 95/21/44
f 45/29/45 46/32/45 88/32/45
f 60/31/46 61/30/46 103/30/46
f 46/32/47 54/26/47 96/26/47
f 48/34/48 47/39/48 89/39/48
f 61/30/49 62/41/49 104/41/49
f 84/6/78 64/4/78 65/23/78
f 65/23/78 66/22/78 73/15/78
f 66/22/78 67/28/78 75/27/78
f 75/27/78 74/20/78 73/15/78
f 66/22/78 75/27/78 73/15/78
f 83/36/78 84/6/78 72/11/78
f 84/6/78 65/23/78 72/11/78
f 82/37/78 83/36/78 72/11/78
f 72/11/78 71/3/78 82/37/78
f 71/3/78 70/1/78 82/37/78
f 65/23/78 73/15/78 72/11/78
f 70/1/78 69/35/78 82/37/78
f 69/35/78 68/33/78 76/42/78
f 76/42/78 77/7/78 80/25/78
f 77/7/78 78/12/78 80/25/78
f 78/12/78 79/18/78 80/25/78
f 69/35/78 76/42/78 81/24/78
f 82/37/78 69/35/78 81/24/78
