# Blender v3.2.1 OBJ File: 'untitled.blend'
# www.blender.org
mtllib 6.mtl
o Cube.006
v -0.032720 -0.150069 0.014348
v 0.072172 -0.127373 0.014348
v 0.023713 -0.195461 0.014348
v 0.052543 -0.188713 0.014348
v 0.078920 -0.229811 0.014348
v 0.061131 -0.304033 0.014348
v -0.051122 -0.341451 0.014348
v -0.044374 -0.321822 0.014348
v -0.078725 -0.300966 0.014348
v -0.086699 -0.262322 0.014348
v 0.005701 -0.253688 0.009048
v -0.001850 -0.263306 0.009048
v -0.004903 -0.255574 0.009048
v -0.004469 -0.254606 0.009048
v -0.037065 -0.136811 0.009048
v 0.086967 -0.120464 0.009048
v 0.045756 -0.180451 0.009048
v 0.060797 -0.178693 0.009048
v 0.089021 -0.227506 0.009048
v 0.069676 -0.311923 0.009048
v -0.060065 -0.347972 0.009048
v -0.053278 -0.329492 0.009048
v -0.087318 -0.308434 0.009048
v -0.102008 -0.259157 0.009048
v 0.012627 -0.249929 0.014348
v -0.003577 -0.273552 0.014348
v -0.010947 -0.254400 0.014348
v -0.007066 -0.250578 0.014348
v 0.005701 -0.253688 0.000000
v -0.001850 -0.263306 0.000000
v -0.004903 -0.255574 0.000000
v -0.004469 -0.254606 0.000000
v -0.037065 -0.136811 0.000000
v 0.086967 -0.120464 0.000000
v 0.045756 -0.180451 0.000000
v 0.060797 -0.178693 0.000000
v 0.089021 -0.227506 0.000000
v 0.069676 -0.311923 0.000000
v -0.060065 -0.347972 0.000000
v -0.053278 -0.329492 0.000000
v -0.087318 -0.308434 0.000000
v -0.102008 -0.259157 0.000000
v -0.032720 -0.150069 -0.014348
v 0.072172 -0.127373 -0.014348
v 0.023713 -0.195461 -0.014348
v 0.052543 -0.188713 -0.014348
v 0.078920 -0.229811 -0.014348
v 0.061131 -0.304033 -0.014348
v -0.051122 -0.341451 -0.014348
v -0.044374 -0.321822 -0.014348
v -0.078725 -0.300966 -0.014348
v -0.086699 -0.262322 -0.014348
v 0.005701 -0.253688 -0.009048
v -0.001850 -0.263306 -0.009048
v -0.004903 -0.255574 -0.009048
v -0.004469 -0.254606 -0.009048
v -0.037065 -0.136811 -0.009048
v 0.086967 -0.120464 -0.009048
v 0.045756 -0.180451 -0.009048
v 0.060797 -0.178693 -0.009048
v 0.089021 -0.227506 -0.009048
v 0.069676 -0.311923 -0.009048
v -0.060065 -0.347972 -0.009048
v -0.053278 -0.329492 -0.009048
v -0.087318 -0.308434 -0.009048
v -0.102008 -0.259157 -0.009048
v 0.012627 -0.249929 -0.014348
v -0.003577 -0.273552 -0.014348
v -0.010947 -0.254400 -0.014348
v -0.007066 -0.250578 -0.014348
vt 0.766157 0.219004
vt 0.880167 0.531831
vt 0.838874 0.522409
vt 0.496224 0.417094
vt 0.487382 0.437520
vt 0.471514 0.421894
vt 0.307288 0.066048
vt 0.801090 0.186753
vt 0.539569 0.424803
vt 0.567881 0.440170
vt 0.298473 0.114931
vt 0.270730 0.039391
vt 0.194452 0.231541
vt 0.334870 0.146287
vt 0.811292 0.941158
vt 0.364751 0.902576
vt 0.382512 0.848381
vt 0.161854 0.389512
vt 0.159324 0.201012
vt 0.703307 0.724186
vt 0.871772 0.969400
vt 0.099274 0.402447
vt 0.731052 0.690410
vt 0.613201 0.662828
vt 0.508703 0.385490
vt 0.764791 0.731372
vt 0.501641 0.343606
vt 0.159324 0.201012
vt 0.871772 0.969400
vt 0.099274 0.402447
vt 0.703307 0.724186
vt 0.764791 0.731372
vt 0.508703 0.385490
vt 0.880167 0.531831
vt 0.496224 0.417094
vt 0.801090 0.186753
vt 0.497998 0.421053
vt 0.497998 0.421053
vt 0.270730 0.039391
vt 0.298473 0.114931
vt 0.364751 0.902576
vt 0.880167 0.531831
vt 0.766157 0.219004
vt 0.838874 0.522409
vt 0.496224 0.417094
vt 0.487382 0.437520
vt 0.497998 0.421053
vt 0.801090 0.186753
vt 0.307288 0.066048
vt 0.539569 0.424803
vt 0.298473 0.114931
vt 0.334870 0.146287
vt 0.194452 0.231541
vt 0.364751 0.902576
vt 0.811292 0.941158
vt 0.382512 0.848381
vt 0.159324 0.201012
vt 0.161854 0.389512
vt 0.703307 0.724186
vt 0.613201 0.662828
vt 0.099274 0.402447
vt 0.731052 0.690410
vt 0.567881 0.440170
vt 0.508703 0.385490
vt 0.471514 0.421894
vt 0.871772 0.969400
vt 0.764791 0.731372
vt 0.270730 0.039391
vt 0.501641 0.343606
vt 0.539569 0.424803
vn 0.4820 -0.1155 0.8685
vn 0.5066 -0.5145 0.6918
vn 0.1459 -0.4378 0.8871
vn -0.0274 0.8319 -0.5543
vn -0.6130 0.2251 0.7574
vn -0.2223 -0.3662 0.9036
vn -0.0755 0.3487 0.9342
vn -0.4613 -0.0952 0.8821
vn 0.4442 -0.3052 0.8423
vn -0.2973 0.1429 0.9440
vn -0.1102 0.4709 0.8753
vn -0.6775 0.5319 0.5080
vn 0.3459 0.2000 0.9167
vn 0.6604 0.2541 0.7066
vn -0.9583 -0.2857 0.0000
vn 0.8242 -0.5663 0.0000
vn -0.8833 0.4689 0.0000
vn -0.1161 0.9932 0.0000
vn 0.8657 0.5006 0.0000
vn -0.7865 0.6175 0.0000
vn 0.9747 -0.2234 0.0000
vn 0.9301 0.3672 0.0000
vn 0.2677 -0.9635 0.0000
vn 0.9126 -0.4089 0.0000
vn -0.9387 0.3447 0.0000
vn -0.0899 0.9960 0.0000
vn -0.5261 -0.8504 0.0000
vn -0.1307 0.9914 0.0000
vn 0.0000 0.0000 1.0000
vn 0.4820 -0.1155 -0.8685
vn 0.7273 -0.3259 -0.6041
vn 0.1459 -0.4378 -0.8871
vn -0.0701 0.7773 0.6252
vn -0.6304 0.2167 -0.7454
vn -0.2223 -0.3662 -0.9036
vn -0.0755 0.3487 -0.9342
vn -0.4613 -0.0952 -0.8821
vn 0.4049 -0.2881 -0.8678
vn -0.2973 0.1429 -0.9440
vn -0.1102 0.4709 -0.8753
vn -0.6775 0.5319 -0.5080
vn 0.4020 0.2580 -0.8785
vn 0.6645 0.2624 -0.6997
vn 0.0000 0.0000 -1.0000
vn 0.4532 -0.1039 0.8853
vn 0.7273 -0.3259 0.6041
vn 0.2158 -0.7768 0.5916
vn -0.0701 0.7773 -0.6252
vn -0.6304 0.2167 0.7454
vn -0.2305 -0.3726 0.8989
vn -0.0958 0.7268 0.6801
vn -0.3443 -0.1026 0.9332
vn 0.4049 -0.2881 0.8678
vn -0.4119 0.2186 0.8846
vn -0.0589 0.5042 0.8616
vn -0.6362 0.4364 0.6363
vn 0.4020 0.2580 0.8785
vn 0.6645 0.2624 0.6997
vn 0.4532 -0.1039 -0.8853
vn 0.5066 -0.5145 -0.6918
vn 0.2158 -0.7768 -0.5916
vn -0.0274 0.8319 0.5543
vn -0.6130 0.2251 -0.7574
vn -0.2305 -0.3726 -0.8989
vn -0.0958 0.7268 -0.6801
vn -0.3443 -0.1026 -0.9332
vn 0.4442 -0.3052 -0.8423
vn -0.4119 0.2186 -0.8846
vn -0.0589 0.5042 -0.8616
vn -0.6362 0.4364 -0.6363
vn 0.3459 0.2000 -0.9167
vn 0.6604 0.2541 -0.7066
usemtl Material.006
s off
f 6/1/1 19/2/1 5/3/1
f 13/4/2 28/5/2 27/6/2
f 7/7/3 20/8/3 6/1/3
f 11/9/4 28/5/4 25/10/4
f 7/7/5 22/11/5 21/12/5
f 9/13/6 22/11/6 8/14/6
f 2/15/7 15/16/7 1/17/7
f 10/18/8 23/19/8 9/13/8
f 2/15/9 17/20/9 16/21/9
f 1/17/10 24/22/10 10/18/10
f 4/23/11 17/20/11 3/24/11
f 12/25/12 25/10/12 11/9/12
f 4/23/13 19/2/13 18/26/13
f 12/25/14 27/6/14 26/27/14
f 24/22/15 41/28/15 23/19/15
f 17/20/16 34/29/16 16/21/16
f 15/16/17 42/30/17 24/22/17
f 18/26/18 35/31/18 17/20/18
f 19/2/19 36/32/19 18/26/19
f 11/9/20 30/33/20 12/25/20
f 20/8/21 37/34/21 19/2/21
f 12/25/22 31/35/22 13/4/22
f 21/12/23 38/36/23 20/8/23
f 13/4/24 32/37/24 14/38/24
f 22/11/25 39/39/25 21/12/25
f 11/9/26 32/37/26 14/38/26
f 23/19/27 40/40/27 22/11/27
f 16/21/28 33/41/28 15/16/28
f 27/6/29 10/18/29 9/13/29
f 6/1/29 25/10/29 26/27/29
f 25/10/29 5/3/29 3/24/29
f 28/5/29 3/24/29 1/17/29
f 61/42/30 48/43/30 47/44/30
f 55/45/31 70/46/31 56/47/31
f 62/48/32 49/49/32 48/43/32
f 53/50/33 70/46/33 56/47/33
f 49/49/34 64/51/34 50/52/34
f 64/51/35 51/53/35 50/52/35
f 57/54/36 44/55/36 43/56/36
f 65/57/37 52/58/37 51/53/37
f 44/55/38 59/59/38 45/60/38
f 66/61/39 43/56/39 52/58/39
f 59/59/40 46/62/40 45/60/40
f 67/63/41 54/64/41 53/50/41
f 46/62/42 61/42/42 47/44/42
f 54/64/43 69/65/43 55/45/43
f 41/28/15 66/61/15 65/57/15
f 34/29/16 59/59/16 58/66/16
f 42/30/17 57/54/17 66/61/17
f 35/31/18 60/67/18 59/59/18
f 36/32/19 61/42/19 60/67/19
f 30/33/20 53/50/20 54/64/20
f 37/34/21 62/48/21 61/42/21
f 31/35/22 54/64/22 55/45/22
f 38/36/23 63/68/23 62/48/23
f 32/37/24 55/45/24 56/47/24
f 39/39/25 64/51/25 63/68/25
f 32/37/26 53/50/26 56/47/26
f 40/40/27 65/57/27 64/51/27
f 33/41/28 58/66/28 57/54/28
f 51/53/44 69/65/44 68/69/44
f 48/43/44 50/52/44 68/69/44
f 67/63/44 45/60/44 47/44/44
f 69/65/44 52/58/44 43/56/44
f 6/1/45 20/8/45 19/2/45
f 13/4/46 14/38/46 28/5/46
f 7/7/47 21/12/47 20/8/47
f 11/9/48 14/38/48 28/5/48
f 7/7/49 8/14/49 22/11/49
f 9/13/50 23/19/50 22/11/50
f 2/15/51 16/21/51 15/16/51
f 10/18/52 24/22/52 23/19/52
f 2/15/53 3/24/53 17/20/53
f 1/17/54 15/16/54 24/22/54
f 4/23/55 18/26/55 17/20/55
f 12/25/56 26/27/56 25/10/56
f 4/23/57 5/3/57 19/2/57
f 12/25/58 13/4/58 27/6/58
f 24/22/15 42/30/15 41/28/15
f 17/20/16 35/31/16 34/29/16
f 15/16/17 33/41/17 42/30/17
f 18/26/18 36/32/18 35/31/18
f 19/2/19 37/34/19 36/32/19
f 11/9/20 29/70/20 30/33/20
f 20/8/21 38/36/21 37/34/21
f 12/25/22 30/33/22 31/35/22
f 21/12/23 39/39/23 38/36/23
f 13/4/24 31/35/24 32/37/24
f 22/11/25 40/40/25 39/39/25
f 11/9/26 29/70/26 32/37/26
f 23/19/27 41/28/27 40/40/27
f 16/21/28 34/29/28 33/41/28
f 9/13/29 8/14/29 26/27/29
f 26/27/29 27/6/29 9/13/29
f 6/1/29 5/3/29 25/10/29
f 26/27/29 8/14/29 6/1/29
f 8/14/29 7/7/29 6/1/29
f 4/23/29 3/24/29 5/3/29
f 3/24/29 28/5/29 25/10/29
f 3/24/29 2/15/29 1/17/29
f 1/17/29 10/18/29 27/6/29
f 27/6/29 28/5/29 1/17/29
f 61/42/59 62/48/59 48/43/59
f 55/45/60 69/65/60 70/46/60
f 62/48/61 63/68/61 49/49/61
f 53/50/62 67/63/62 70/46/62
f 49/49/63 63/68/63 64/51/63
f 64/51/64 65/57/64 51/53/64
f 57/54/65 58/66/65 44/55/65
f 65/57/66 66/61/66 52/58/66
f 44/55/67 58/66/67 59/59/67
f 66/61/68 57/54/68 43/56/68
f 59/59/69 60/67/69 46/62/69
f 67/63/70 68/69/70 54/64/70
f 46/62/71 60/67/71 61/42/71
f 54/64/72 68/69/72 69/65/72
f 41/28/15 42/30/15 66/61/15
f 34/29/16 35/31/16 59/59/16
f 42/30/17 33/41/17 57/54/17
f 35/31/18 36/32/18 60/67/18
f 36/32/19 37/34/19 61/42/19
f 30/33/20 29/70/20 53/50/20
f 37/34/21 38/36/21 62/48/21
f 31/35/22 30/33/22 54/64/22
f 38/36/23 39/39/23 63/68/23
f 32/37/24 31/35/24 55/45/24
f 39/39/25 40/40/25 64/51/25
f 32/37/26 29/70/26 53/50/26
f 40/40/27 41/28/27 65/57/27
f 33/41/28 34/29/28 58/66/28
f 68/69/44 50/52/44 51/53/44
f 51/53/44 52/58/44 69/65/44
f 67/63/44 47/44/44 48/43/44
f 48/43/44 49/49/44 50/52/44
f 68/69/44 67/63/44 48/43/44
f 70/46/44 45/60/44 67/63/44
f 45/60/44 46/62/44 47/44/44
f 43/56/44 44/55/44 45/60/44
f 45/60/44 70/46/44 43/56/44
f 70/46/44 69/65/44 43/56/44
