# Blender v3.2.1 OBJ File: 'untitled.blend'
# www.blender.org
mtllib 7.mtl
o Cube.008
v -0.498906 -0.381322 0.014348
v -0.455354 -0.411992 0.014348
v -0.440019 -0.395430 0.014348
v -0.359663 -0.372121 0.014348
v -0.314885 -0.437141 0.014348
v -0.348622 -0.440822 0.014348
v -0.359050 -0.469038 0.014348
v -0.378679 -0.486213 0.014348
v -0.366411 -0.527925 0.014348
v -0.444313 -0.586811 0.014348
v -0.460261 -0.506456 0.014348
v -0.432045 -0.480079 0.014348
v -0.425911 -0.457383 0.014348
v -0.401988 -0.446956 0.014348
v -0.401752 -0.444962 0.014348
v -0.428966 -0.452239 0.014348
v -0.432931 -0.455850 0.014348
v -0.434451 -0.479466 0.014348
v -0.463328 -0.504615 0.014348
v -0.498292 -0.470878 0.014348
v -0.505253 -0.366999 0.009048
v -0.453685 -0.402549 0.009048
v -0.441767 -0.390374 0.009048
v -0.355136 -0.366664 0.009048
v -0.305796 -0.445282 0.009048
v -0.343233 -0.447830 0.009048
v -0.354475 -0.476830 0.009048
v -0.363212 -0.490732 0.009048
v -0.352057 -0.533216 0.009048
v -0.450242 -0.596701 0.009048
v -0.466068 -0.508591 0.009048
v -0.434739 -0.480478 0.009048
v -0.431263 -0.453203 0.009048
v -0.401840 -0.445923 0.009048
v -0.399444 -0.442617 0.009048
v -0.431186 -0.445923 0.009048
v -0.439867 -0.455846 0.009048
v -0.436477 -0.480973 0.009048
v -0.466154 -0.518406 0.009048
v -0.507207 -0.473735 0.009048
v -0.505253 -0.366999 0.000000
v -0.453685 -0.402549 0.000000
v -0.441767 -0.390374 0.000000
v -0.355136 -0.366664 0.000000
v -0.305796 -0.445282 0.000000
v -0.343233 -0.447830 0.000000
v -0.354475 -0.476830 0.000000
v -0.363212 -0.490732 0.000000
v -0.352057 -0.533216 0.000000
v -0.450242 -0.596701 0.000000
v -0.466068 -0.508591 0.000000
v -0.434739 -0.480478 0.000000
v -0.431263 -0.453203 0.000000
v -0.401840 -0.445923 0.000000
v -0.399444 -0.442617 0.000000
v -0.431186 -0.445923 0.000000
v -0.439867 -0.455846 0.000000
v -0.436477 -0.480973 0.000000
v -0.466154 -0.518406 0.000000
v -0.507207 -0.473735 0.000000
v -0.498906 -0.381322 -0.014348
v -0.455354 -0.411992 -0.014348
v -0.440019 -0.395430 -0.014348
v -0.359663 -0.372121 -0.014348
v -0.314885 -0.437141 -0.014348
v -0.348622 -0.440822 -0.014348
v -0.359050 -0.469038 -0.014348
v -0.378679 -0.486213 -0.014348
v -0.366411 -0.527925 -0.014348
v -0.444313 -0.586811 -0.014348
v -0.460261 -0.506456 -0.014348
v -0.432045 -0.480079 -0.014348
v -0.425911 -0.457383 -0.014348
v -0.401988 -0.446956 -0.014348
v -0.401752 -0.444962 -0.014348
v -0.428966 -0.452239 -0.014348
v -0.432931 -0.455850 -0.014348
v -0.434451 -0.479466 -0.014348
v -0.463328 -0.504615 -0.014348
v -0.498292 -0.470878 -0.014348
v -0.505253 -0.366999 -0.009048
v -0.453685 -0.402549 -0.009048
v -0.441767 -0.390374 -0.009048
v -0.355136 -0.366664 -0.009048
v -0.305796 -0.445282 -0.009048
v -0.343233 -0.447830 -0.009048
v -0.354475 -0.476830 -0.009048
v -0.363212 -0.490732 -0.009048
v -0.352057 -0.533216 -0.009048
v -0.450242 -0.596701 -0.009048
v -0.466068 -0.508591 -0.009048
v -0.434739 -0.480478 -0.009048
v -0.431263 -0.453203 -0.009048
v -0.401840 -0.445923 -0.009048
v -0.399444 -0.442617 -0.009048
v -0.431186 -0.445923 -0.009048
v -0.439867 -0.455846 -0.009048
v -0.436477 -0.480973 -0.009048
v -0.466154 -0.518406 -0.009048
v -0.507207 -0.473735 -0.009048
vt 0.372967 0.055929
vt 0.283447 0.377792
vt 0.348568 0.015234
vt 0.721284 0.939341
vt 0.383440 0.864234
vt 0.390635 0.843428
vt 0.294722 0.394150
vt 0.405210 0.491436
vt 0.413545 0.497635
vt 0.307342 0.386578
vt 0.412361 0.493471
vt 0.905539 0.671793
vt 0.739911 0.961795
vt 0.114169 0.521216
vt 0.283094 0.337405
vt 0.448688 0.588501
vt 0.423447 0.495111
vt 0.788892 0.627813
vt 0.942938 0.638297
vt 0.148328 0.901481
vt 0.150852 0.532972
vt 0.547736 0.635657
vt 0.426664 0.605703
vt 0.723808 0.540544
vt 0.766717 0.656649
vt 0.548097 0.639614
vt 0.547125 0.631409
vt 0.706679 0.451278
vt 0.742633 0.508482
vt 0.426979 0.635657
vt 0.557594 0.649263
vt 0.693520 0.298236
vt 0.643039 0.469871
vt 0.334400 0.814133
vt 0.122210 0.960416
vt 0.419802 0.594809
vt 0.436115 0.609668
vt 0.752582 0.276465
vt 0.327534 0.775279
vt 0.391261 0.594829
vt 0.739911 0.961795
vt 0.283094 0.337405
vt 0.412361 0.493471
vt 0.942938 0.638297
vt 0.114169 0.521216
vt 0.426664 0.605703
vt 0.788892 0.627813
vt 0.547736 0.635657
vt 0.742633 0.508482
vt 0.557594 0.649263
vt 0.706679 0.451278
vt 0.122210 0.960416
vt 0.426979 0.635657
vt 0.752582 0.276465
vt 0.334400 0.814133
vt 0.391261 0.594829
vt 0.348568 0.015234
vt 0.383440 0.864234
vt 0.405210 0.491436
vt 0.283447 0.377792
vt 0.372967 0.055929
vt 0.283447 0.377792
vt 0.307342 0.386578
vt 0.383440 0.864234
vt 0.721284 0.939341
vt 0.390635 0.843428
vt 0.405210 0.491436
vt 0.294722 0.394150
vt 0.413545 0.497635
vt 0.412361 0.493471
vt 0.423447 0.495111
vt 0.739911 0.961795
vt 0.905539 0.671793
vt 0.114169 0.521216
vt 0.150852 0.532972
vt 0.448688 0.588501
vt 0.788892 0.627813
vt 0.766717 0.656649
vt 0.148328 0.901481
vt 0.547736 0.635657
vt 0.547125 0.631409
vt 0.723808 0.540544
vt 0.548097 0.639614
vt 0.706679 0.451278
vt 0.643039 0.469871
vt 0.426979 0.635657
vt 0.436115 0.609668
vt 0.693520 0.298236
vt 0.334400 0.814133
vt 0.327534 0.775279
vt 0.419802 0.594809
vt 0.752582 0.276465
vt 0.391261 0.594829
vt 0.942938 0.638297
vt 0.283094 0.337405
vt 0.426664 0.605703
vt 0.122210 0.960416
vt 0.742633 0.508482
vt 0.557594 0.649263
vt 0.348568 0.015234
vn -0.5638 -0.1013 0.8197
vn -0.1962 0.6763 0.7100
vn 0.6563 -0.7536 -0.0366
vn -0.6131 0.6833 0.3965
vn 0.5052 0.3479 0.7898
vn -0.3101 -0.2850 0.9070
vn -0.8733 0.2360 0.4262
vn 0.0352 -0.5173 0.8550
vn -0.5102 -0.0035 0.8601
vn -0.1691 0.6836 0.7100
vn 0.5421 -0.2003 0.8161
vn -0.9930 0.1176 -0.0049
vn 0.4668 -0.2934 0.8343
vn 0.0964 -0.9251 -0.3674
vn 0.3492 0.1027 0.9314
vn 0.3084 0.4473 0.8395
vn 0.4390 -0.4820 -0.7583
vn 0.2295 -0.3036 0.9247
vn -0.5242 0.4854 0.6997
vn 0.6066 -0.0391 -0.7940
vn 0.8470 0.5316 0.0000
vn -0.7363 -0.6767 0.0000
vn -0.9920 0.1264 0.0000
vn 0.0679 -0.9977 0.0000
vn -0.9998 0.0183 0.0000
vn -0.2402 0.9707 0.0000
vn 0.9324 -0.3615 0.0000
vn -0.8098 0.5867 0.0000
vn 0.8467 -0.5321 0.0000
vn 0.1036 -0.9946 0.0000
vn 0.9672 0.2540 0.0000
vn 0.5676 0.8233 0.0000
vn 0.7526 -0.6584 0.0000
vn 0.5430 -0.8397 0.0000
vn -0.7146 0.6995 0.0000
vn 0.9910 0.1337 0.0000
vn -0.9842 -0.1768 0.0000
vn -0.2640 0.9645 0.0000
vn 0.7836 -0.6213 0.0000
vn -0.6679 0.7443 0.0000
vn 0.0000 0.0000 1.0000
vn -0.6426 -0.1275 -0.7555
vn -0.1962 0.6763 -0.7100
vn 0.6563 -0.7536 0.0366
vn -0.6555 0.7012 -0.2805
vn 0.5052 0.3479 -0.7898
vn -0.3754 -0.3891 -0.8412
vn -0.8733 0.2360 -0.4262
vn 0.0623 -0.5711 -0.8185
vn -0.5102 -0.0035 -0.8601
vn -0.3941 0.9041 -0.1651
vn 0.5421 -0.2003 -0.8161
vn -0.9930 0.1176 0.0049
vn 0.2393 -0.2735 -0.9316
vn 0.1606 -0.6007 0.7832
vn 0.3492 0.1027 -0.9314
vn 0.3000 0.4260 -0.8535
vn 0.4390 -0.4820 0.7583
vn 0.2295 -0.3036 -0.9247
vn -0.5242 0.4854 -0.6997
vn 0.6066 -0.0391 0.7940
vn 0.0000 0.0000 -1.0000
vn -0.6426 -0.1275 0.7555
vn -0.2094 0.7651 0.6089
vn 0.5020 -0.3980 0.7679
vn -0.6555 0.7012 0.2805
vn 0.7147 0.4485 0.5367
vn -0.3754 -0.3891 0.8412
vn -0.6668 0.0850 0.7404
vn 0.0623 -0.5711 0.8185
vn -0.6255 0.0115 0.7801
vn -0.3941 0.9041 0.1651
vn 0.5587 -0.2166 0.8006
vn -0.8063 0.5842 -0.0926
vn 0.2393 -0.2735 0.9316
vn 0.1606 -0.6007 -0.7832
vn 0.3766 0.0989 0.9211
vn 0.3000 0.4260 0.8535
vn 0.5360 -0.4689 -0.7020
vn 0.3918 -0.6059 0.6924
vn -0.5304 0.5191 0.6702
vn 0.9147 0.1234 -0.3847
vn -0.8098 0.5868 0.0000
vn 0.7836 -0.6212 0.0000
vn -0.5638 -0.1013 -0.8197
vn -0.2094 0.7651 -0.6089
vn 0.5020 -0.3980 -0.7679
vn -0.6131 0.6833 -0.3965
vn 0.7147 0.4485 -0.5367
vn -0.3101 -0.2850 -0.9070
vn -0.6668 0.0850 -0.7404
vn 0.0352 -0.5173 -0.8550
vn -0.6255 0.0115 -0.7801
vn -0.1691 0.6836 -0.7100
vn 0.5587 -0.2166 -0.8006
vn -0.8063 0.5842 0.0926
vn 0.4668 -0.2934 -0.8343
vn 0.0964 -0.9251 0.3674
vn 0.3766 0.0989 -0.9211
vn 0.3084 0.4473 -0.8395
vn 0.5360 -0.4689 0.7020
vn 0.3918 -0.6059 -0.6924
vn -0.5304 0.5191 -0.6702
vn 0.9147 0.1234 0.3847
usemtl Material.007
s off
f 10/1/1 31/2/1 30/3/1
f 4/4/2 23/5/2 3/6/2
f 19/7/3 38/8/3 18/9/3
f 11/10/4 32/11/4 31/2/4
f 5/12/5 24/13/5 4/4/5
f 19/7/6 40/14/6 39/15/6
f 13/16/7 32/11/7 12/17/7
f 5/12/8 26/18/8 25/19/8
f 1/20/9 40/14/9 20/21/9
f 13/16/10 34/22/10 33/23/10
f 7/24/11 26/18/11 6/25/11
f 15/26/12 34/22/12 14/27/12
f 7/24/13 28/28/13 27/29/13
f 15/26/14 36/30/14 35/31/14
f 9/32/15 28/28/15 8/33/15
f 1/20/16 22/34/16 21/35/16
f 17/36/17 36/30/17 16/37/17
f 10/1/18 29/38/18 9/32/18
f 3/6/19 22/34/19 2/39/19
f 18/9/20 37/40/20 17/36/20
f 25/19/21 44/41/21 24/13/21
f 40/14/22 59/42/22 39/15/22
f 33/23/23 52/43/23 32/11/23
f 26/18/24 45/44/24 25/19/24
f 21/35/25 60/45/25 40/14/25
f 34/22/26 53/46/26 33/23/26
f 27/29/27 46/47/27 26/18/27
f 35/31/28 54/48/28 34/22/28
f 28/28/29 47/49/29 27/29/29
f 36/30/30 55/50/30 35/31/30
f 29/38/31 48/51/31 28/28/31
f 22/34/32 41/52/32 21/35/32
f 37/40/33 56/53/33 36/30/33
f 30/3/34 49/54/34 29/38/34
f 23/5/35 42/55/35 22/34/35
f 38/8/36 57/56/36 37/40/36
f 31/2/37 50/57/37 30/3/37
f 24/13/38 43/58/38 23/5/38
f 39/15/39 58/59/39 38/8/39
f 32/11/40 51/60/40 31/2/40
f 3/6/41 16/37/41 15/26/41
f 70/61/42 91/62/42 71/63/42
f 83/64/43 64/65/43 63/66/43
f 98/67/44 79/68/44 78/69/44
f 71/63/45 92/70/45 72/71/45
f 84/72/46 65/73/46 64/65/46
f 79/68/47 100/74/47 80/75/47
f 92/70/48 73/76/48 72/71/48
f 65/73/49 86/77/49 66/78/49
f 100/74/50 61/79/50 80/75/50
f 73/76/51 94/80/51 74/81/51
f 86/77/52 67/82/52 66/78/52
f 94/80/53 75/83/53 74/81/53
f 67/82/54 88/84/54 68/85/54
f 75/83/55 96/86/55 76/87/55
f 88/84/56 69/88/56 68/85/56
f 61/79/57 82/89/57 62/90/57
f 96/86/58 77/91/58 76/87/58
f 89/92/59 70/61/59 69/88/59
f 82/89/60 63/66/60 62/90/60
f 97/93/61 78/69/61 77/91/61
f 44/41/21 85/94/21 84/72/21
f 59/42/22 100/74/22 99/95/22
f 52/43/23 93/96/23 92/70/23
f 45/44/24 86/77/24 85/94/24
f 60/45/25 81/97/25 100/74/25
f 53/46/26 94/80/26 93/96/26
f 46/47/27 87/98/27 86/77/27
f 54/48/28 95/99/28 94/80/28
f 47/49/29 88/84/29 87/98/29
f 55/50/30 96/86/30 95/99/30
f 48/51/31 89/92/31 88/84/31
f 41/52/32 82/89/32 81/97/32
f 56/53/33 97/93/33 96/86/33
f 49/54/34 90/100/34 89/92/34
f 42/55/35 83/64/35 82/89/35
f 57/56/36 98/67/36 97/93/36
f 50/57/37 91/62/37 90/100/37
f 43/58/38 84/72/38 83/64/38
f 58/59/39 99/95/39 98/67/39
f 51/60/40 92/70/40 91/62/40
f 76/87/62 77/91/62 62/90/62
f 10/1/63 11/10/63 31/2/63
f 4/4/64 24/13/64 23/5/64
f 19/7/65 39/15/65 38/8/65
f 11/10/66 12/17/66 32/11/66
f 5/12/67 25/19/67 24/13/67
f 19/7/68 20/21/68 40/14/68
f 13/16/69 33/23/69 32/11/69
f 5/12/70 6/25/70 26/18/70
f 1/20/71 21/35/71 40/14/71
f 13/16/72 14/27/72 34/22/72
f 7/24/73 27/29/73 26/18/73
f 15/26/74 35/31/74 34/22/74
f 7/24/75 8/33/75 28/28/75
f 15/26/76 16/37/76 36/30/76
f 9/32/77 29/38/77 28/28/77
f 1/20/78 2/39/78 22/34/78
f 17/36/79 37/40/79 36/30/79
f 10/1/80 30/3/80 29/38/80
f 3/6/81 23/5/81 22/34/81
f 18/9/82 38/8/82 37/40/82
f 25/19/21 45/44/21 44/41/21
f 40/14/22 60/45/22 59/42/22
f 33/23/23 53/46/23 52/43/23
f 26/18/24 46/47/24 45/44/24
f 21/35/25 41/52/25 60/45/25
f 34/22/26 54/48/26 53/46/26
f 27/29/27 47/49/27 46/47/27
f 35/31/83 55/50/83 54/48/83
f 28/28/29 48/51/29 47/49/29
f 36/30/30 56/53/30 55/50/30
f 29/38/31 49/54/31 48/51/31
f 22/34/32 42/55/32 41/52/32
f 37/40/33 57/56/33 56/53/33
f 30/3/34 50/57/34 49/54/34
f 23/5/35 43/58/35 42/55/35
f 38/8/36 58/59/36 57/56/36
f 31/2/37 51/60/37 50/57/37
f 24/13/38 44/41/38 43/58/38
f 39/15/84 59/42/84 58/59/84
f 32/11/40 52/43/40 51/60/40
f 2/39/41 1/20/41 20/21/41
f 20/21/41 19/7/41 18/9/41
f 20/21/41 18/9/41 17/36/41
f 3/6/41 2/39/41 16/37/41
f 2/39/41 20/21/41 17/36/41
f 5/12/41 4/4/41 6/25/41
f 4/4/41 3/6/41 15/26/41
f 6/25/41 4/4/41 15/26/41
f 8/33/41 7/24/41 14/27/41
f 7/24/41 6/25/41 15/26/41
f 14/27/41 7/24/41 15/26/41
f 2/39/41 17/36/41 16/37/41
f 10/1/41 9/32/41 11/10/41
f 9/32/41 8/33/41 12/17/41
f 12/17/41 11/10/41 9/32/41
f 14/27/41 13/16/41 8/33/41
f 13/16/41 12/17/41 8/33/41
f 70/61/85 90/100/85 91/62/85
f 83/64/86 84/72/86 64/65/86
f 98/67/87 99/95/87 79/68/87
f 71/63/88 91/62/88 92/70/88
f 84/72/89 85/94/89 65/73/89
f 79/68/90 99/95/90 100/74/90
f 92/70/91 93/96/91 73/76/91
f 65/73/92 85/94/92 86/77/92
f 100/74/93 81/97/93 61/79/93
f 73/76/94 93/96/94 94/80/94
f 86/77/95 87/98/95 67/82/95
f 94/80/96 95/99/96 75/83/96
f 67/82/97 87/98/97 88/84/97
f 75/83/98 95/99/98 96/86/98
f 88/84/99 89/92/99 69/88/99
f 61/79/100 81/97/100 82/89/100
f 96/86/101 97/93/101 77/91/101
f 89/92/102 90/100/102 70/61/102
f 82/89/103 83/64/103 63/66/103
f 97/93/104 98/67/104 78/69/104
f 44/41/21 45/44/21 85/94/21
f 59/42/22 60/45/22 100/74/22
f 52/43/23 53/46/23 93/96/23
f 45/44/24 46/47/24 86/77/24
f 60/45/25 41/52/25 81/97/25
f 53/46/26 54/48/26 94/80/26
f 46/47/27 47/49/27 87/98/27
f 54/48/83 55/50/83 95/99/83
f 47/49/29 48/51/29 88/84/29
f 55/50/30 56/53/30 96/86/30
f 48/51/31 49/54/31 89/92/31
f 41/52/32 42/55/32 82/89/32
f 56/53/33 57/56/33 97/93/33
f 49/54/34 50/57/34 90/100/34
f 42/55/35 43/58/35 83/64/35
f 57/56/36 58/59/36 98/67/36
f 50/57/37 51/60/37 91/62/37
f 43/58/38 44/41/38 84/72/38
f 58/59/84 59/42/84 99/95/84
f 51/60/40 52/43/40 92/70/40
f 80/75/62 61/79/62 62/90/62
f 62/90/62 63/66/62 76/87/62
f 63/66/62 64/65/62 75/83/62
f 76/87/62 63/66/62 75/83/62
f 64/65/62 65/73/62 66/78/62
f 66/78/62 67/82/62 75/83/62
f 67/82/62 68/85/62 74/81/62
f 75/83/62 67/82/62 74/81/62
f 68/85/62 69/88/62 72/71/62
f 69/88/62 70/61/62 71/63/62
f 72/71/62 69/88/62 71/63/62
f 72/71/62 73/76/62 68/85/62
f 73/76/62 74/81/62 68/85/62
f 64/65/62 66/78/62 75/83/62
f 80/75/62 62/90/62 77/91/62
f 78/69/62 79/68/62 80/75/62
f 77/91/62 78/69/62 80/75/62
