# Blender 4.4.1
# www.blender.org
o Cube.007
v -0.077440 0.103092 0.014348
v -0.038796 0.075488 0.014348
v -0.022847 0.086530 0.014348
v 0.051374 0.100025 0.014348
v 0.090019 0.052179 0.014348
v 0.060575 0.001880 0.014348
v 0.070390 -0.003640 0.014348
v 0.084498 -0.066207 0.014348
v 0.013957 -0.115893 0.014348
v -0.055971 -0.097491 0.014348
v -0.077440 -0.057006 0.014348
v -0.059038 -0.011615 0.014348
v -0.068239 -0.009161 0.014348
v -0.001992 0.025190 0.014348
v 0.000462 0.030710 0.014348
v 0.012117 0.036231 0.014348
v 0.015797 0.025803 0.014348
v 0.012730 0.019669 0.014348
v -0.002605 -0.034924 0.014348
v 0.007209 -0.038604 0.014348
v -0.001378 -0.045352 0.014348
v -0.006899 -0.045965 0.014348
v -0.009966 -0.042285 0.014348
v -0.084293 0.113103 0.009048
v -0.038627 0.082832 0.009048
v -0.025041 0.094940 0.009048
v 0.056354 0.109739 0.009048
v 0.098733 0.052750 0.009048
v 0.073634 0.006013 0.009048
v 0.077824 0.004273 0.009048
v 0.097649 -0.069009 0.009048
v 0.015320 -0.127046 0.009048
v -0.061366 -0.104025 0.009048
v -0.084200 -0.055724 0.009048
v -0.067924 -0.019434 0.009048
v -0.077304 -0.015678 0.009048
v 0.003349 0.027153 0.009048
v 0.004333 0.029367 0.009048
v 0.009008 0.031582 0.009048
v 0.010485 0.027399 0.009048
v 0.009254 0.024938 0.009048
v -0.002942 -0.039266 0.009048
v -0.000140 -0.040317 0.009048
v -0.002591 -0.042243 0.009048
v -0.004167 -0.042418 0.009048
v -0.005043 -0.041367 0.009048
v -0.084293 0.113103 -0.000000
v -0.038627 0.082832 -0.000000
v -0.025041 0.094940 -0.000000
v 0.056354 0.109739 -0.000000
v 0.098733 0.052750 -0.000000
v 0.073634 0.006013 0.000000
v 0.077824 0.004273 0.000000
v 0.097649 -0.069009 0.000000
v 0.015320 -0.127046 0.000000
v -0.061366 -0.104025 0.000000
v -0.084200 -0.055724 0.000000
v -0.067924 -0.019434 0.000000
v -0.077304 -0.015678 0.000000
v 0.003349 0.027153 0.000000
v 0.004333 0.029367 0.000000
v 0.009008 0.031582 0.000000
v 0.010485 0.027399 0.000000
v 0.009254 0.024938 0.000000
v -0.002942 -0.039266 0.000000
v -0.000140 -0.040317 0.000000
v -0.002591 -0.042243 0.000000
v -0.004167 -0.042418 0.000000
v -0.005043 -0.041367 0.000000
v -0.077440 0.103092 -0.014348
v -0.038796 0.075488 -0.014348
v -0.022847 0.086530 -0.014348
v 0.051374 0.100025 -0.014348
v 0.090019 0.052179 -0.014348
v 0.060575 0.001880 -0.014348
v 0.070390 -0.003640 -0.014348
v 0.084498 -0.066207 -0.014348
v 0.013957 -0.115893 -0.014348
v -0.055971 -0.097491 -0.014348
v -0.077440 -0.057006 -0.014348
v -0.059038 -0.011615 -0.014348
v -0.068239 -0.009161 -0.014348
v -0.001992 0.025190 -0.014348
v 0.000462 0.030710 -0.014348
v 0.012117 0.036231 -0.014348
v 0.015797 0.025803 -0.014348
v 0.012730 0.019669 -0.014348
v -0.002605 -0.034924 -0.014348
v 0.007209 -0.038604 -0.014348
v -0.001378 -0.045352 -0.014348
v -0.006899 -0.045965 -0.014348
v -0.009966 -0.042285 -0.014348
v -0.084293 0.113103 -0.009048
v -0.038627 0.082832 -0.009048
v -0.025041 0.094940 -0.009048
v 0.056354 0.109739 -0.009048
v 0.098733 0.052750 -0.009048
v 0.073634 0.006013 -0.009048
v 0.077824 0.004273 -0.009048
v 0.097649 -0.069009 -0.009048
v 0.015320 -0.127046 -0.009048
v -0.061366 -0.104025 -0.009048
v -0.084200 -0.055724 -0.009048
v -0.067924 -0.019434 -0.009048
v -0.077304 -0.015678 -0.009048
v 0.003349 0.027153 -0.009048
v 0.004333 0.029367 -0.009048
v 0.009008 0.031582 -0.009048
v 0.010485 0.027399 -0.009048
v 0.009254 0.024938 -0.009048
v -0.002942 -0.039266 -0.009048
v -0.000140 -0.040317 -0.009048
v -0.002591 -0.042243 -0.009048
v -0.004167 -0.042418 -0.009048
v -0.005043 -0.041367 -0.009048
vn -0.7239 0.3218 -0.6103
vn 0.4802 0.1299 0.8675
vn -0.5927 -0.4940 -0.6361
vn -0.3765 0.7946 -0.4763
vn -0.3764 0.7946 -0.4763
vn 0.2720 -0.3861 0.8814
vn 0.2723 -0.3865 0.8812
vn 0.2726 -0.3868 0.8810
vn 0.6237 -0.6237 0.4713
vn 0.4189 0.6320 0.6520
vn 0.7203 0.2542 -0.6455
vn -0.1317 -0.4386 0.8890
vn -0.3789 0.5473 0.7463
vn 0.6227 -0.3115 -0.7178
vn -0.4953 -0.2627 0.8280
vn -0.0933 0.5133 0.8531
vn 0.2876 0.7668 0.5739
vn -0.5665 0.2541 0.7840
vn 0.3649 0.2948 0.8831
vn 0.2756 0.7349 -0.6196
vn 0.2757 0.7349 -0.6196
vn -0.1222 -0.4580 0.8805
vn 0.5127 -0.2753 0.8132
vn 0.5292 -0.6734 -0.5161
vn 0.6428 0.0349 -0.7652
vn 0.2295 0.4081 0.8836
vn 0.0943 -0.8491 -0.5197
vn 0.9985 0.0542 -0.0000
vn 0.3835 0.9235 -0.0000
vn 0.1104 -0.9939 -0.0000
vn -0.9138 0.4061 -0.0000
vn 0.9653 0.2611 -0.0000
vn -0.7682 -0.6403 -0.0000
vn -0.4282 0.9037 -0.0000
vn 0.5762 -0.8173 -0.0000
vn 0.7071 -0.7071 -0.0000
vn 0.5525 0.8335 -0.0000
vn 0.9429 0.3330 -0.0000
vn 0.9429 0.3329 -0.0000
vn 0.9431 0.3326 -0.0000
vn -0.2875 -0.9578 -0.0000
vn -0.6653 0.7465 -0.0000
vn 0.8944 -0.4474 -0.0000
vn 0.8945 -0.4471 -0.0000
vn -0.9041 -0.4274 -0.0000
vn -0.1789 0.9839 -0.0000
vn 0.3512 0.9363 -0.0000
vn -0.9124 0.4092 -0.0000
vn 0.8024 0.5967 -0.0000
vn -0.3717 -0.9283 -0.0000
vn 0.8810 -0.4731 -0.0000
vn 0.6179 -0.7863 -0.0000
vn -0.0000 -0.0000 1.0000
vn -0.7239 0.3218 0.6103
vn 0.3884 0.0876 -0.9173
vn -0.5927 -0.4940 0.6361
vn -0.3764 0.7947 0.4762
vn 0.2720 -0.3861 -0.8814
vn 0.2723 -0.3865 -0.8812
vn 0.2717 -0.3858 -0.8817
vn 0.6237 -0.6237 -0.4713
vn 0.3821 0.5350 -0.7535
vn 0.7203 0.2542 0.6454
vn 0.7203 0.2542 0.6455
vn -0.1444 -0.5487 -0.8234
vn -0.3789 0.5473 -0.7463
vn 0.6227 -0.3113 0.7179
vn -0.4953 -0.2627 -0.8280
vn -0.0933 0.5133 -0.8531
vn 0.2876 0.7668 -0.5738
vn 0.2876 0.7669 -0.5738
vn -0.6555 0.2657 -0.7069
vn 0.3649 0.2948 -0.8831
vn 0.2756 0.7349 0.6196
vn -0.1222 -0.4580 -0.8805
vn 0.4314 -0.2525 -0.8661
vn 0.5289 -0.6736 0.5163
vn 0.5292 -0.6734 0.5161
vn 0.4830 0.0396 0.8747
vn 0.2295 0.4081 -0.8836
vn 0.0943 -0.8491 0.5197
vn -0.0000 -0.0000 -1.0000
vn -0.7239 0.3217 -0.6103
vn 0.3884 0.0876 0.9173
vn -0.3764 0.7947 -0.4762
vn 0.2717 -0.3858 0.8817
vn 0.3821 0.5350 0.7535
vn 0.7203 0.2543 -0.6453
vn -0.1444 -0.5487 0.8234
vn -0.3760 0.4219 0.8250
vn 0.6227 -0.3113 -0.7179
vn -0.6236 -0.2948 0.7240
vn 0.2876 0.7669 0.5738
vn -0.6555 0.2657 0.7069
vn 0.4700 0.3495 0.8105
vn -0.1823 -0.4552 0.8715
vn 0.4314 -0.2525 0.8661
vn 0.5292 -0.6734 -0.5162
vn 0.4830 0.0396 -0.8747
vn 0.1774 0.4272 0.8866
vn -0.7239 0.3217 0.6103
vn 0.4802 0.1299 -0.8675
vn -0.3765 0.7946 0.4763
vn 0.2726 -0.3868 -0.8810
vn 0.4189 0.6320 -0.6520
vn 0.7203 0.2543 0.6453
vn -0.1317 -0.4386 -0.8890
vn -0.3760 0.4219 -0.8250
vn 0.6227 -0.3115 0.7178
vn -0.6236 -0.2948 -0.7240
vn 0.2876 0.7668 -0.5739
vn -0.5665 0.2541 -0.7840
vn 0.4700 0.3495 -0.8105
vn 0.2757 0.7349 0.6196
vn -0.1823 -0.4552 -0.8715
vn 0.5127 -0.2753 -0.8132
vn 0.5292 -0.6734 0.5162
vn 0.6428 0.0349 0.7652
vn 0.1774 0.4272 -0.8866
vt 0.480493 0.665507
vt 0.492418 0.650813
vt 0.470358 0.642702
vt 0.769349 0.523613
vt 0.881949 0.253592
vt 0.800056 0.556299
vt 0.450087 0.348779
vt 0.457754 0.367773
vt 0.461370 0.363433
vt 0.515796 0.669108
vt 0.496484 0.659961
vt 0.827626 0.265163
vt 0.541870 0.013854
vt 0.467824 0.394388
vt 0.466434 0.376453
vt 0.158698 0.964497
vt 0.319024 0.880809
vt 0.130389 1.005850
vt 0.543839 0.645236
vt 0.528636 0.688311
vt 0.536237 0.059924
vt 0.225098 0.108946
vt 0.384208 0.896084
vt 0.318329 0.850475
vt 0.516812 0.641665
vt 0.521895 0.651829
vt 0.158698 0.303171
vt 0.247382 0.135939
vt 0.690800 0.951828
vt 0.375148 0.930825
vt 0.198007 0.458373
vt 0.130776 0.308470
vt 0.850431 0.754190
vt 0.711370 0.991957
vt 0.478007 0.372113
vt 0.196706 0.500808
vt 0.234713 0.490673
vt 0.782751 0.563488
vt 0.886428 0.756550
vt 0.472892 0.351313
vt 0.508365 0.379185
vt 0.159260 0.473887
vt 0.728807 0.546417
vt 0.467880 0.364156
vt 0.437418 0.363983
vt 0.531170 0.619898
s 1
f 15/1/1 37/2/1 14/3/1
f 7/4/2 31/5/2 30/6/2
f 22/7/3 46/8/3 45/9/3
f 15/1/4 39/10/5 38/11/4
f 8/12/6 32/13/7 31/5/8
f 19/14/9 46/8/9 42/15/9
f 1/16/10 25/17/10 24/18/10
f 17/19/11 39/10/11 16/20/11
f 9/21/12 33/22/12 32/13/12
f 3/23/13 25/17/13 2/24/13
f 17/19/14 41/25/14 40/26/14
f 11/27/15 33/22/15 10/28/15
f 4/29/16 26/30/16 3/23/16
f 14/3/17 41/25/17 37/2/17
f 11/27/18 35/31/18 34/32/18
f 5/33/19 27/34/19 4/29/19
f 19/14/20 43/35/20 42/15/21
f 13/36/22 35/31/22 12/37/22
f 5/33/23 29/38/23 28/39/23
f 21/40/24 43/35/24 20/41/24
f 1/16/25 36/42/25 24/18/25
f 7/4/26 29/38/26 6/43/26
f 21/40/27 45/9/27 44/44/27
f 36/42/28 47/18/28 24/18/28
f 30/6/29 52/38/29 29/38/29
f 45/9/30 67/44/30 44/44/30
f 38/11/31 60/2/31 37/2/31
f 31/5/32 53/6/32 30/6/32
f 46/8/33 68/9/33 45/9/33
f 39/10/34 61/11/34 38/11/34
f 32/13/35 54/5/35 31/5/35
f 46/8/36 65/15/36 42/15/36
f 25/17/37 47/18/37 24/18/37
f 40/26/38 62/10/39 39/10/40
f 33/22/41 55/13/41 32/13/41
f 26/30/42 48/17/42 25/17/42
f 41/25/43 63/26/43 40/26/44
f 34/32/45 56/22/45 33/22/45
f 27/34/46 49/30/46 26/30/46
f 41/25/47 60/2/47 37/2/47
f 35/31/48 57/32/48 34/32/48
f 28/39/49 50/34/49 27/34/49
f 43/35/47 65/15/47 42/15/47
f 36/42/50 58/31/50 35/31/50
f 29/38/51 51/39/51 28/39/51
f 44/44/52 66/35/52 43/35/52
f 6/43/53 20/41/53 7/4/53
f 23/45/53 12/37/53 11/27/53
f 14/3/53 19/14/53 18/46/53
f 18/46/53 6/43/53 17/19/53
f 5/33/53 16/20/53 17/19/53
f 16/20/53 4/29/53 3/23/53
f 14/3/53 15/1/53 2/24/53
f 10/28/53 23/45/53 11/27/53
f 9/21/53 22/7/53 10/28/53
f 20/41/53 9/21/53 8/12/53
f 106/2/54 84/1/54 83/3/54
f 76/4/55 100/5/55 77/12/55
f 91/7/56 115/8/56 92/45/56
f 84/1/57 108/10/57 85/20/57
f 77/12/58 101/13/59 78/21/60
f 88/14/61 115/8/61 92/45/61
f 70/16/62 94/17/62 71/24/62
f 108/10/63 86/19/63 85/20/64
f 78/21/65 102/22/65 79/28/65
f 94/17/66 72/23/66 71/24/66
f 86/19/67 110/25/67 87/46/67
f 102/22/68 80/27/68 79/28/68
f 95/30/69 73/29/69 72/23/69
f 83/3/70 110/25/70 87/46/71
f 80/27/72 104/31/72 81/37/72
f 96/34/73 74/33/73 73/29/73
f 88/14/74 112/35/74 89/41/74
f 104/31/75 82/36/75 81/37/75
f 74/33/76 98/38/76 75/43/76
f 112/35/77 90/40/78 89/41/78
f 70/16/79 105/42/79 82/36/79
f 98/38/80 76/4/80 75/43/80
f 90/40/81 114/9/81 91/7/81
f 47/18/28 105/42/28 93/18/28
f 52/38/29 99/6/29 98/38/29
f 67/44/30 114/9/30 113/44/30
f 60/2/31 107/11/31 106/2/31
f 53/6/32 100/5/32 99/6/32
f 68/9/33 115/8/33 114/9/33
f 61/11/34 108/10/34 107/11/34
f 54/5/35 101/13/35 100/5/35
f 65/15/36 115/8/36 111/15/36
f 47/18/37 94/17/37 93/18/37
f 62/10/39 109/26/38 108/10/40
f 55/13/41 102/22/41 101/13/41
f 48/17/42 95/30/42 94/17/42
f 63/26/44 110/25/44 109/26/44
f 56/22/45 103/32/45 102/22/45
f 49/30/46 96/34/46 95/30/46
f 60/2/47 110/25/47 106/2/47
f 57/32/48 104/31/48 103/32/48
f 50/34/49 97/39/49 96/34/49
f 65/15/47 112/35/47 111/15/47
f 58/31/50 105/42/50 104/31/50
f 51/39/51 98/38/51 97/39/51
f 66/35/52 113/44/52 112/35/52
f 89/41/82 75/43/82 76/4/82
f 81/37/82 92/45/82 80/27/82
f 88/14/82 83/3/82 87/46/82
f 86/19/82 75/43/82 87/46/82
f 74/33/82 85/20/82 73/29/82
f 72/23/82 85/20/82 84/1/82
f 81/37/82 82/36/82 71/24/82
f 92/45/82 79/28/82 80/27/82
f 91/7/82 78/21/82 79/28/82
f 78/21/82 90/40/82 89/41/82
f 15/1/83 38/11/83 37/2/83
f 7/4/84 8/12/84 31/5/84
f 22/7/3 23/45/3 46/8/3
f 15/1/4 16/20/85 39/10/5
f 8/12/6 9/21/86 32/13/7
f 19/14/9 23/45/9 46/8/9
f 1/16/87 2/24/87 25/17/87
f 17/19/88 40/26/88 39/10/88
f 9/21/89 10/28/89 33/22/89
f 3/23/90 26/30/90 25/17/90
f 17/19/91 18/46/91 41/25/91
f 11/27/92 34/32/92 33/22/92
f 4/29/16 27/34/16 26/30/16
f 14/3/93 18/46/93 41/25/93
f 11/27/94 12/37/94 35/31/94
f 5/33/95 28/39/95 27/34/95
f 19/14/20 20/41/20 43/35/20
f 13/36/96 36/42/96 35/31/96
f 5/33/97 6/43/97 29/38/97
f 21/40/98 44/44/98 43/35/98
f 1/16/99 13/36/99 36/42/99
f 7/4/100 30/6/100 29/38/100
f 21/40/27 22/7/27 45/9/27
f 36/42/28 59/42/28 47/18/28
f 30/6/29 53/6/29 52/38/29
f 45/9/30 68/9/30 67/44/30
f 38/11/31 61/11/31 60/2/31
f 31/5/32 54/5/32 53/6/32
f 46/8/33 69/8/33 68/9/33
f 39/10/34 62/10/34 61/11/34
f 32/13/35 55/13/35 54/5/35
f 46/8/36 69/8/36 65/15/36
f 25/17/37 48/17/37 47/18/37
f 40/26/38 63/26/39 62/10/39
f 33/22/41 56/22/41 55/13/41
f 26/30/42 49/30/42 48/17/42
f 41/25/43 64/25/43 63/26/43
f 34/32/45 57/32/45 56/22/45
f 27/34/46 50/34/46 49/30/46
f 41/25/47 64/25/47 60/2/47
f 35/31/48 58/31/48 57/32/48
f 28/39/49 51/39/49 50/34/49
f 43/35/47 66/35/47 65/15/47
f 36/42/50 59/42/50 58/31/50
f 29/38/51 52/38/51 51/39/51
f 44/44/52 67/44/52 66/35/52
f 6/43/53 19/14/53 20/41/53
f 23/45/53 19/14/53 12/37/53
f 14/3/53 12/37/53 19/14/53
f 19/14/53 6/43/53 18/46/53
f 6/43/53 5/33/53 17/19/53
f 5/33/53 4/29/53 16/20/53
f 3/23/53 2/24/53 15/1/53
f 15/1/53 16/20/53 3/23/53
f 2/24/53 1/16/53 13/36/53
f 13/36/53 12/37/53 2/24/53
f 12/37/53 14/3/53 2/24/53
f 10/28/53 22/7/53 23/45/53
f 9/21/53 21/40/53 22/7/53
f 8/12/53 7/4/53 20/41/53
f 20/41/53 21/40/53 9/21/53
f 106/2/101 107/11/101 84/1/101
f 76/4/102 99/6/102 100/5/102
f 91/7/56 114/9/56 115/8/56
f 84/1/103 107/11/103 108/10/103
f 77/12/58 100/5/104 101/13/59
f 88/14/61 111/15/61 115/8/61
f 70/16/105 93/18/105 94/17/105
f 108/10/63 109/26/106 86/19/63
f 78/21/107 101/13/107 102/22/107
f 94/17/108 95/30/108 72/23/108
f 86/19/109 109/26/109 110/25/109
f 102/22/110 103/32/110 80/27/110
f 95/30/69 96/34/69 73/29/69
f 83/3/70 106/2/111 110/25/70
f 80/27/112 103/32/112 104/31/112
f 96/34/113 97/39/113 74/33/113
f 88/14/74 111/15/114 112/35/74
f 104/31/115 105/42/115 82/36/115
f 74/33/116 97/39/116 98/38/116
f 112/35/77 113/44/117 90/40/78
f 70/16/118 93/18/118 105/42/118
f 98/38/119 99/6/119 76/4/119
f 90/40/81 113/44/81 114/9/81
f 47/18/28 59/42/28 105/42/28
f 52/38/29 53/6/29 99/6/29
f 67/44/30 68/9/30 114/9/30
f 60/2/31 61/11/31 107/11/31
f 53/6/32 54/5/32 100/5/32
f 68/9/33 69/8/33 115/8/33
f 61/11/34 62/10/34 108/10/34
f 54/5/35 55/13/35 101/13/35
f 65/15/36 69/8/36 115/8/36
f 47/18/37 48/17/37 94/17/37
f 62/10/39 63/26/39 109/26/38
f 55/13/41 56/22/41 102/22/41
f 48/17/42 49/30/42 95/30/42
f 63/26/43 64/25/43 110/25/44
f 56/22/45 57/32/45 103/32/45
f 49/30/46 50/34/46 96/34/46
f 60/2/47 64/25/47 110/25/47
f 57/32/48 58/31/48 104/31/48
f 50/34/49 51/39/49 97/39/49
f 65/15/47 66/35/47 112/35/47
f 58/31/50 59/42/50 105/42/50
f 51/39/51 52/38/51 98/38/51
f 66/35/52 67/44/52 113/44/52
f 89/41/82 88/14/82 75/43/82
f 81/37/82 88/14/82 92/45/82
f 88/14/82 81/37/82 83/3/82
f 74/33/82 75/43/82 86/19/82
f 75/43/82 88/14/82 87/46/82
f 74/33/82 86/19/82 85/20/82
f 84/1/82 71/24/82 72/23/82
f 72/23/82 73/29/82 85/20/82
f 82/36/82 70/16/82 71/24/82
f 71/24/82 84/1/82 83/3/82
f 83/3/82 81/37/82 71/24/82
f 92/45/82 91/7/82 79/28/82
f 91/7/82 90/40/82 78/21/82
f 89/41/82 76/4/82 77/12/82
f 77/12/82 78/21/82 89/41/82
