# Blender 4.4.1
# www.blender.org
o Sphere
v 0.027060 0.092388 -0.027060
v 0.050000 0.070711 -0.050000
v 0.065328 0.038268 -0.065328
v 0.070711 0.000000 -0.070711
v 0.065328 -0.038268 -0.065328
v 0.050000 -0.070711 -0.050000
v 0.027060 -0.092388 -0.027060
v 0.038268 0.092388 0.000000
v 0.070711 0.070711 0.000000
v 0.092388 0.038268 0.000000
v 0.100000 0.000000 0.000000
v 0.092388 -0.038268 0.000000
v 0.070711 -0.070711 0.000000
v 0.038268 -0.092388 0.000000
v 0.027060 0.092388 0.027060
v 0.050000 0.070711 0.050000
v 0.065328 0.038268 0.065328
v 0.070711 0.000000 0.070711
v 0.065328 -0.038268 0.065328
v 0.050000 -0.070711 0.050000
v 0.027060 -0.092388 0.027060
v 0.000000 0.092388 0.038268
v 0.000000 0.070711 0.070711
v 0.000000 0.038268 0.092388
v 0.000000 0.000000 0.100000
v 0.000000 -0.038268 0.092388
v 0.000000 -0.070711 0.070711
v 0.000000 -0.092388 0.038268
v -0.027060 0.092388 0.027060
v -0.050000 0.070711 0.050000
v -0.065328 0.038268 0.065328
v -0.070711 0.000000 0.070711
v -0.065328 -0.038268 0.065328
v -0.050000 -0.070711 0.050000
v -0.027060 -0.092388 0.027060
v -0.038268 0.092388 0.000000
v -0.070711 0.070711 0.000000
v -0.092388 0.038268 0.000000
v -0.100000 0.000000 0.000000
v -0.092388 -0.038268 0.000000
v -0.070711 -0.070711 0.000000
v -0.038268 -0.092388 0.000000
v -0.027060 0.092388 -0.027060
v -0.050000 0.070711 -0.050000
v -0.065328 0.038268 -0.065328
v -0.070711 0.000000 -0.070711
v -0.065328 -0.038268 -0.065328
v -0.050000 -0.070711 -0.050000
v -0.027060 -0.092388 -0.027060
v 0.000000 -0.100000 0.000000
v 0.000000 0.100000 0.000000
v 0.000000 0.092388 -0.038268
v 0.000000 0.070711 -0.070711
v 0.000000 0.038268 -0.092388
v 0.000000 0.000000 -0.100000
v 0.000000 -0.038268 -0.092388
v 0.000000 -0.070711 -0.070711
v 0.000000 -0.092388 -0.038268
vn 0.2243 -0.8103 -0.5414
vn 0.3764 -0.1807 -0.9087
vn 0.3256 0.5253 -0.7862
vn 0.0805 0.9776 -0.1945
vn 0.0805 -0.9776 -0.1945
vn 0.3256 -0.5253 -0.7862
vn 0.3764 0.1807 -0.9087
vn 0.2243 0.8103 -0.5414
vn 0.1945 -0.9776 -0.0805
vn 0.7862 -0.5253 -0.3256
vn 0.9087 0.1807 -0.3764
vn 0.5414 0.8103 -0.2243
vn 0.5414 -0.8103 -0.2243
vn 0.9087 -0.1807 -0.3764
vn 0.7862 0.5253 -0.3256
vn 0.1945 0.9776 -0.0805
vn 0.9087 0.1807 0.3764
vn 0.5414 0.8103 0.2243
vn 0.5414 -0.8103 0.2243
vn 0.9087 -0.1807 0.3764
vn 0.7862 0.5253 0.3256
vn 0.1945 0.9776 0.0805
vn 0.1945 -0.9776 0.0805
vn 0.7862 -0.5253 0.3256
vn 0.2243 -0.8103 0.5414
vn 0.3764 -0.1807 0.9087
vn 0.3256 0.5253 0.7862
vn 0.0805 0.9776 0.1945
vn 0.0805 -0.9776 0.1945
vn 0.3256 -0.5253 0.7862
vn 0.3764 0.1807 0.9087
vn 0.2243 0.8103 0.5414
vn -0.3256 0.5253 0.7862
vn -0.0805 0.9776 0.1945
vn -0.0805 -0.9776 0.1945
vn -0.3256 -0.5253 0.7862
vn -0.3764 0.1807 0.9087
vn -0.2243 0.8103 0.5414
vn -0.2243 -0.8103 0.5414
vn -0.3764 -0.1807 0.9087
vn -0.1945 -0.9776 0.0805
vn -0.7862 -0.5253 0.3256
vn -0.9087 0.1807 0.3764
vn -0.5414 0.8103 0.2243
vn -0.5414 -0.8103 0.2243
vn -0.9087 -0.1807 0.3764
vn -0.7862 0.5253 0.3256
vn -0.1945 0.9776 0.0805
vn -0.5414 0.8103 -0.2243
vn -0.5414 -0.8103 -0.2243
vn -0.9087 -0.1807 -0.3764
vn -0.7862 0.5253 -0.3256
vn -0.1945 0.9776 -0.0805
vn -0.1945 -0.9776 -0.0805
vn -0.7862 -0.5253 -0.3256
vn -0.9087 0.1807 -0.3764
vn -0.2243 -0.8103 -0.5414
vn -0.3764 -0.1807 -0.9087
vn -0.3256 0.5253 -0.7862
vn -0.0805 0.9776 -0.1945
vn -0.0805 -0.9776 -0.1945
vn -0.3256 -0.5253 -0.7862
vn -0.3764 0.1807 -0.9087
vn -0.2243 0.8103 -0.5414
vt 0.750000 0.125000
vt 0.750000 0.250000
vt 0.625000 0.250000
vt 0.625000 0.125000
vt 0.750000 0.375000
vt 0.750000 0.500000
vt 0.625000 0.500000
vt 0.625000 0.375000
vt 0.750000 0.625000
vt 0.750000 0.750000
vt 0.625000 0.750000
vt 0.625000 0.625000
vt 0.750000 0.875000
vt 0.687500 1.000000
vt 0.625000 0.875000
vt 0.687500 0.000000
vt 0.562500 0.000000
vt 0.500000 0.125000
vt 0.500000 0.375000
vt 0.500000 0.250000
vt 0.500000 0.625000
vt 0.500000 0.500000
vt 0.500000 0.875000
vt 0.500000 0.750000
vt 0.562500 1.000000
vt 0.375000 0.625000
vt 0.375000 0.500000
vt 0.375000 0.875000
vt 0.375000 0.750000
vt 0.375000 0.250000
vt 0.375000 0.125000
vt 0.375000 0.375000
vt 0.437500 1.000000
vt 0.437500 0.000000
vt 0.250000 0.250000
vt 0.250000 0.125000
vt 0.250000 0.500000
vt 0.250000 0.375000
vt 0.250000 0.750000
vt 0.250000 0.625000
vt 0.312500 1.000000
vt 0.250000 0.875000
vt 0.312500 0.000000
vt 0.125000 0.750000
vt 0.125000 0.625000
vt 0.187500 1.000000
vt 0.125000 0.875000
vt 0.187500 0.000000
vt 0.125000 0.125000
vt 0.125000 0.375000
vt 0.125000 0.250000
vt 0.125000 0.500000
vt 0.062500 0.000000
vt 0.000000 0.125000
vt 0.000000 0.375000
vt 0.000000 0.250000
vt 0.000000 0.625000
vt 0.000000 0.500000
vt 0.000000 0.875000
vt 0.000000 0.750000
vt 0.062500 1.000000
vt 1.000000 0.750000
vt 1.000000 0.875000
vt 0.875000 0.875000
vt 0.875000 0.750000
vt 1.000000 0.125000
vt 1.000000 0.250000
vt 0.875000 0.250000
vt 0.875000 0.125000
vt 1.000000 0.375000
vt 1.000000 0.500000
vt 0.875000 0.500000
vt 0.875000 0.375000
vt 1.000000 0.625000
vt 0.875000 0.625000
vt 0.937500 1.000000
vt 0.937500 0.000000
vt 0.812500 1.000000
vt 0.812500 0.000000
s 0
f 58/1/1 57/2/1 6/3/1 7/4/1
f 56/5/2 55/6/2 4/7/2 5/8/2
f 54/9/3 53/10/3 2/11/3 3/12/3
f 52/13/4 51/14/4 1/15/4
f 50/16/5 58/1/5 7/4/5
f 57/2/6 56/5/6 5/8/6 6/3/6
f 55/6/7 54/9/7 3/12/7 4/7/7
f 53/10/8 52/13/8 1/15/8 2/11/8
f 50/17/9 7/4/9 14/18/9
f 6/3/10 5/8/10 12/19/10 13/20/10
f 4/7/11 3/12/11 10/21/11 11/22/11
f 2/11/12 1/15/12 8/23/12 9/24/12
f 7/4/13 6/3/13 13/20/13 14/18/13
f 5/8/14 4/7/14 11/22/14 12/19/14
f 3/12/15 2/11/15 9/24/15 10/21/15
f 1/15/16 51/25/16 8/23/16
f 11/22/17 10/21/17 17/26/17 18/27/17
f 9/24/18 8/23/18 15/28/18 16/29/18
f 14/18/19 13/20/19 20/30/19 21/31/19
f 12/19/20 11/22/20 18/27/20 19/32/20
f 10/21/21 9/24/21 16/29/21 17/26/21
f 8/23/22 51/33/22 15/28/22
f 50/34/23 14/18/23 21/31/23
f 13/20/24 12/19/24 19/32/24 20/30/24
f 21/31/25 20/30/25 27/35/25 28/36/25
f 19/32/26 18/27/26 25/37/26 26/38/26
f 17/26/27 16/29/27 23/39/27 24/40/27
f 15/28/28 51/41/28 22/42/28
f 50/43/29 21/31/29 28/36/29
f 20/30/30 19/32/30 26/38/30 27/35/30
f 18/27/31 17/26/31 24/40/31 25/37/31
f 16/29/32 15/28/32 22/42/32 23/39/32
f 24/40/33 23/39/33 30/44/33 31/45/33
f 22/42/34 51/46/34 29/47/34
f 50/48/35 28/36/35 35/49/35
f 27/35/36 26/38/36 33/50/36 34/51/36
f 25/37/37 24/40/37 31/45/37 32/52/37
f 23/39/38 22/42/38 29/47/38 30/44/38
f 28/36/39 27/35/39 34/51/39 35/49/39
f 26/38/40 25/37/40 32/52/40 33/50/40
f 50/53/41 35/49/41 42/54/41
f 34/51/42 33/50/42 40/55/42 41/56/42
f 32/52/43 31/45/43 38/57/43 39/58/43
f 30/44/44 29/47/44 36/59/44 37/60/44
f 35/49/45 34/51/45 41/56/45 42/54/45
f 33/50/46 32/52/46 39/58/46 40/55/46
f 31/45/47 30/44/47 37/60/47 38/57/47
f 29/47/48 51/61/48 36/59/48
f 37/62/49 36/63/49 43/64/49 44/65/49
f 42/66/50 41/67/50 48/68/50 49/69/50
f 40/70/51 39/71/51 46/72/51 47/73/51
f 38/74/52 37/62/52 44/65/52 45/75/52
f 36/63/53 51/76/53 43/64/53
f 50/77/54 42/66/54 49/69/54
f 41/67/55 40/70/55 47/73/55 48/68/55
f 39/71/56 38/74/56 45/75/56 46/72/56
f 49/69/57 48/68/57 57/2/57 58/1/57
f 47/73/58 46/72/58 55/6/58 56/5/58
f 45/75/59 44/65/59 53/10/59 54/9/59
f 43/64/60 51/78/60 52/13/60
f 50/79/61 49/69/61 58/1/61
f 48/68/62 47/73/62 56/5/62 57/2/62
f 46/72/63 45/75/63 54/9/63 55/6/63
f 44/65/64 43/64/64 52/13/64 53/10/64
