# Blender v3.2.1 OBJ File: 'test.blend'
# www.blender.org
mtllib test.mtl
o Cube
v 0.086258 0.237941 -0.237941
v 0.086258 -0.237941 -0.237941
v 0.086258 0.237941 0.237941
v 0.086258 -0.237941 0.237941
v -0.086258 0.237941 -0.237941
v -0.086258 -0.237941 -0.237941
v -0.086258 0.237941 0.237941
v -0.086258 -0.237941 0.237941
vt 0.999908 0.000092
vt 0.000092 0.848742
vt 0.000092 0.000092
vt 0.000092 0.000092
vt 0.999908 0.848742
vt 0.000092 0.848742
vt 0.999908 0.848742
vt 0.000092 0.000092
vt 0.999908 0.000092
vt 0.000092 0.848742
vt 0.999908 0.848742
vt 0.999908 0.848742
vt 0.999908 0.848742
vt 0.000092 0.000092
vt 0.999908 0.000092
vt 0.999908 0.000092
vt 0.000092 0.848742
vt 0.000092 0.000092
vt 0.999908 0.000092
vt 0.000092 0.848742
vn 0.0000 1.0000 0.0000
vn 0.0000 0.0000 1.0000
vn -1.0000 0.0000 0.0000
vn 0.0000 -1.0000 0.0000
vn 1.0000 0.0000 0.0000
vn 0.0000 0.0000 -1.0000
usemtl Material
s off
f 5/1/1 3/2/1 1/3/1
f 3/4/2 8/5/2 4/6/2
f 7/7/3 6/8/3 8/9/3
f 2/10/4 8/9/4 6/11/4
f 1/3/5 4/12/5 2/10/5
f 5/13/6 2/14/6 6/15/6
f 5/1/1 7/7/1 3/2/1
f 3/4/2 7/16/2 8/5/2
f 7/7/3 5/17/3 6/8/3
f 2/10/4 4/18/4 8/9/4
f 1/3/5 3/19/5 4/12/5
f 5/13/6 1/20/6 2/14/6
